<svg xmlns="http://www.w3.org/2000/svg" width="192" height="70.751" viewBox="0 0 192 70.751">
  <g id="组_15" data-name="组 15" transform="translate(-950 -120)">
    <g id="d" transform="translate(1118.859 120)">
      <g id="路径_9" data-name="路径 9" transform="translate(0 34.712)">
        <path d="M 16.96507453918457 34.20744705200195 C 12.60903549194336 34.10899353027344 8.528354644775391 32.36624145507813 5.436994552612305 29.27486991882324 C 2.253324747085571 26.09120941162109 0.500004768371582 21.85831069946289 0.500004768371582 17.35593032836914 C 0.500004768371582 12.85354995727539 2.253324747085571 8.620650291442871 5.436994552612305 5.436990261077881 C 8.522331237792969 2.351644039154053 12.59337902069092 0.6096564531326294 16.93985748291016 0.5050013661384583 C 16.99599266052246 1.496731281280518 16.96144104003906 4.378583908081055 16.92515563964844 7.405660152435303 C 16.89065551757813 10.28312015533447 16.84772491455078 13.86422061920166 16.85593414306641 17.35709953308105 C 16.86335563659668 20.5146312713623 16.90890502929688 23.62980079650879 16.94909477233887 26.37825965881348 C 16.99995231628418 29.85615730285645 17.04831314086914 33.1634521484375 16.96507453918457 34.20744705200195 Z" stroke="none"/>
        <path d="M 16.45870018005371 1.024028778076172 C 12.42722129821777 1.240604400634766 8.667266845703125 2.913808822631836 5.790534973144531 5.79054069519043 C 2.70130443572998 8.879770278930664 0.9999942779541016 12.98710060119629 0.9999942779541016 17.35593032836914 C 0.9999942779541016 21.72476005554199 2.70130443572998 25.83209037780762 5.790534973144531 28.92131996154785 C 8.674997329711914 31.80578231811523 12.44699001312256 33.48021697998047 16.49076461791992 33.68952178955078 C 16.53593444824219 32.32046508789063 16.4919605255127 29.31302452087402 16.44915390014648 26.38555145263672 C 16.408935546875 23.63566017150879 16.36336517333984 20.51887130737305 16.35593414306641 17.35828018188477 C 16.34772491455078 13.8618106842041 16.39067459106445 10.27872085571289 16.42518424987793 7.399660110473633 C 16.45664215087891 4.775951385498047 16.48674964904785 2.264366149902344 16.45870018005371 1.024028778076172 M 17.35593414306641 0 C 17.62167549133301 0 17.3357048034668 8.74690055847168 17.35593414306641 17.35593032836914 C 17.37647438049316 26.09720039367676 17.69244384765625 34.71186065673828 17.35593414306641 34.71186065673828 C 7.770514488220215 34.71186065673828 -5.7220458984375e-06 26.94135093688965 -5.7220458984375e-06 17.35593032836914 C -5.7220458984375e-06 7.77052116394043 7.770514488220215 0 17.35593414306641 0 Z" stroke="none" fill="#707070"/>
      </g>
      <g id="椭圆_22" data-name="椭圆 22" transform="translate(11.571 34.712)" stroke="#000" stroke-width="1">
        <ellipse cx="5.785" cy="5.785" rx="5.785" ry="5.785" stroke="none"/>
        <ellipse cx="5.785" cy="5.785" rx="5.285" ry="5.285" fill="none"/>
      </g>
      <g id="椭圆_23" data-name="椭圆 23" transform="translate(11.571 57.853)" stroke="#000" stroke-width="1">
        <ellipse cx="5.785" cy="5.785" rx="5.785" ry="5.785" stroke="none"/>
        <ellipse cx="5.785" cy="5.785" rx="5.285" ry="5.285" fill="none"/>
      </g>
      <g id="椭圆_24" data-name="椭圆 24" transform="translate(11.571 46.282)" fill="#fff" stroke="#fff" stroke-width="1">
        <ellipse cx="5.785" cy="5.785" rx="5.785" ry="5.785" stroke="none"/>
        <ellipse cx="5.785" cy="5.785" rx="5.285" ry="5.285" fill="none"/>
      </g>
      <path id="路径_10" data-name="路径 10" d="M17.356,0c.266,0-.02,8.747,0,17.356.021,8.741.337,17.356,0,17.356A17.356,17.356,0,0,1,17.356,0Z" transform="translate(0 34.712)"/>
      <g id="椭圆_25" data-name="椭圆 25" transform="translate(11.571 34.712)" stroke="#000" stroke-width="1">
        <ellipse cx="5.785" cy="5.785" rx="5.785" ry="5.785" stroke="none"/>
        <ellipse cx="5.785" cy="5.785" rx="5.285" ry="5.285" fill="none"/>
      </g>
      <g id="椭圆_26" data-name="椭圆 26" transform="translate(11.571 57.853)" stroke="#000" stroke-width="1">
        <ellipse cx="5.785" cy="5.785" rx="5.785" ry="5.785" stroke="none"/>
        <ellipse cx="5.785" cy="5.785" rx="5.285" ry="5.285" fill="none"/>
      </g>
      <g id="椭圆_27" data-name="椭圆 27" transform="translate(11.571 46.282)" fill="#fff" stroke="#fff" stroke-width="1">
        <ellipse cx="5.785" cy="5.785" rx="5.785" ry="5.785" stroke="none"/>
        <ellipse cx="5.785" cy="5.785" rx="5.285" ry="5.285" fill="none"/>
      </g>
      <g id="矩形_12" data-name="矩形 12" transform="translate(11.571 6.508)" stroke="#000" stroke-width="1">
        <rect width="11.571" height="33.266" stroke="none"/>
        <rect x="0.5" y="0.5" width="10.571" height="32.266" fill="none"/>
      </g>
      <g id="椭圆_28" data-name="椭圆 28" transform="translate(11.571)" stroke="#000" stroke-width="1">
        <ellipse cx="5.785" cy="5.785" rx="5.785" ry="5.785" stroke="none"/>
        <ellipse cx="5.785" cy="5.785" rx="5.285" ry="5.285" fill="none"/>
      </g>
      <g id="矩形_17" data-name="矩形 17" transform="translate(11.571 57.853)" stroke="#000" stroke-width="1">
        <rect width="11.571" height="11.571" rx="5.785" stroke="none"/>
        <rect x="0.5" y="0.5" width="10.571" height="10.571" rx="5.285" fill="none"/>
      </g>
    </g>
    <g id="l" transform="translate(1101.503 120)">
      <g id="矩形_10" data-name="矩形 10" transform="translate(0 5.785)" stroke="#000" stroke-width="1">
        <rect width="11.571" height="57.853" stroke="none"/>
        <rect x="0.5" y="0.5" width="10.571" height="56.853" fill="none"/>
      </g>
      <g id="椭圆_16" data-name="椭圆 16" transform="translate(0)" stroke="#000" stroke-width="1">
        <ellipse cx="5.785" cy="5.785" rx="5.785" ry="5.785" stroke="none"/>
        <ellipse cx="5.785" cy="5.785" rx="5.285" ry="5.285" fill="none"/>
      </g>
      <g id="椭圆_17" data-name="椭圆 17" transform="translate(0 57.853)" stroke="#000" stroke-width="1">
        <ellipse cx="5.785" cy="5.785" rx="5.785" ry="5.785" stroke="none"/>
        <ellipse cx="5.785" cy="5.785" rx="5.285" ry="5.285" fill="none"/>
      </g>
      <g id="矩形_16" data-name="矩形 16" transform="translate(0 57.853)" stroke="#000" stroke-width="1">
        <rect width="11.571" height="11.571" rx="5.785" stroke="none"/>
        <rect x="0.5" y="0.5" width="10.571" height="10.571" rx="5.285" fill="none"/>
      </g>
    </g>
    <g id="o" transform="translate(1061.006 154.712)">
      <g id="椭圆_7" data-name="椭圆 7" transform="translate(0)" stroke="#000" stroke-width="1">
        <ellipse cx="17.356" cy="17.356" rx="17.356" ry="17.356" stroke="none"/>
        <ellipse cx="17.356" cy="17.356" rx="16.856" ry="16.856" fill="none"/>
      </g>
      <g id="椭圆_15" data-name="椭圆 15" transform="translate(11.571 11.571)" fill="#fff" stroke="#000" stroke-width="1">
        <ellipse cx="5.785" cy="5.785" rx="5.785" ry="5.785" stroke="none"/>
        <ellipse cx="5.785" cy="5.785" rx="5.285" ry="5.285" fill="none"/>
      </g>
    </g>
    <g id="b" transform="translate(1030.995 120)">
      <g id="矩形_9" data-name="矩形 9" transform="translate(0 5.785)" stroke="#000" stroke-width="1">
        <rect width="11.571" height="33.266" stroke="none"/>
        <rect x="0.5" y="0.5" width="10.571" height="32.266" fill="none"/>
      </g>
      <g id="椭圆_8" data-name="椭圆 8" transform="translate(0)" stroke="#000" stroke-width="1">
        <ellipse cx="5.785" cy="5.785" rx="5.785" ry="5.785" stroke="none"/>
        <ellipse cx="5.785" cy="5.785" rx="5.285" ry="5.285" fill="none"/>
      </g>
      <g id="路径_6" data-name="路径 6" transform="translate(24.38 69.424) rotate(180)">
        <path d="M 16.96507453918457 34.20744705200195 C 12.60903549194336 34.10899353027344 8.528354644775391 32.36624145507813 5.436994552612305 29.27486991882324 C 2.253324747085571 26.09120941162109 0.500004768371582 21.85831069946289 0.500004768371582 17.35593032836914 C 0.500004768371582 12.85354995727539 2.253324747085571 8.620650291442871 5.436994552612305 5.436990261077881 C 8.522331237792969 2.351644039154053 12.59337902069092 0.6096564531326294 16.93985748291016 0.5050013661384583 C 16.99599266052246 1.496731281280518 16.96144104003906 4.378583908081055 16.92515563964844 7.405660152435303 C 16.89065551757813 10.28312015533447 16.84772491455078 13.86422061920166 16.85593414306641 17.35709953308105 C 16.86335563659668 20.5146312713623 16.90890502929688 23.62980079650879 16.94909477233887 26.37825965881348 C 16.99995231628418 29.85615730285645 17.04831314086914 33.1634521484375 16.96507453918457 34.20744705200195 Z" stroke="none"/>
        <path d="M 16.45870018005371 1.024028778076172 C 12.42722129821777 1.240604400634766 8.667266845703125 2.913808822631836 5.790534973144531 5.79054069519043 C 2.70130443572998 8.879770278930664 0.9999942779541016 12.98710060119629 0.9999942779541016 17.35593032836914 C 0.9999942779541016 21.72476005554199 2.70130443572998 25.83209037780762 5.790534973144531 28.92131996154785 C 8.674997329711914 31.80578231811523 12.44699001312256 33.48021697998047 16.49076461791992 33.68952178955078 C 16.53593444824219 32.32046508789063 16.4919605255127 29.31302452087402 16.44915390014648 26.38555145263672 C 16.408935546875 23.63566017150879 16.36336517333984 20.51887130737305 16.35593414306641 17.35828018188477 C 16.34772491455078 13.8618106842041 16.39067459106445 10.27872085571289 16.42518424987793 7.399660110473633 C 16.45664215087891 4.775951385498047 16.48674964904785 2.264366149902344 16.45870018005371 1.024028778076172 M 17.35593414306641 0 C 17.62167549133301 0 17.3357048034668 8.74690055847168 17.35593414306641 17.35593032836914 C 17.37647438049316 26.09720039367676 17.69244384765625 34.71186065673828 17.35593414306641 34.71186065673828 C 7.770514488220215 34.71186065673828 -5.7220458984375e-06 26.94135093688965 -5.7220458984375e-06 17.35593032836914 C -5.7220458984375e-06 7.77052116394043 7.770514488220215 0 17.35593414306641 0 Z" stroke="none"/>
      </g>
      <g id="椭圆_9" data-name="椭圆 9" transform="translate(11.571 69.424) rotate(180)" stroke="#000" stroke-width="1">
        <ellipse cx="5.785" cy="5.785" rx="5.785" ry="5.785" stroke="none"/>
        <ellipse cx="5.785" cy="5.785" rx="5.285" ry="5.285" fill="none"/>
      </g>
      <g id="椭圆_10" data-name="椭圆 10" transform="translate(11.571 46.282) rotate(180)" stroke="#000" stroke-width="1">
        <ellipse cx="5.785" cy="5.785" rx="5.785" ry="5.785" stroke="none"/>
        <ellipse cx="5.785" cy="5.785" rx="5.285" ry="5.285" fill="none"/>
      </g>
      <g id="椭圆_11" data-name="椭圆 11" transform="translate(13.74 57.853) rotate(180)" fill="#fff" stroke="#fff" stroke-width="1">
        <ellipse cx="5.785" cy="5.785" rx="5.785" ry="5.785" stroke="none"/>
        <ellipse cx="5.785" cy="5.785" rx="5.285" ry="5.285" fill="none"/>
      </g>
      <g id="矩形_11" data-name="矩形 11" transform="translate(0 5.785)" stroke="#000" stroke-width="1">
        <rect width="11.571" height="33.266" stroke="none"/>
        <rect x="0.5" y="0.5" width="10.571" height="32.266" fill="none"/>
      </g>
      <g id="椭圆_18" data-name="椭圆 18" transform="translate(0)" stroke="#000" stroke-width="1">
        <ellipse cx="5.785" cy="5.785" rx="5.785" ry="5.785" stroke="none"/>
        <ellipse cx="5.785" cy="5.785" rx="5.285" ry="5.285" fill="none"/>
      </g>
      <g id="路径_8" data-name="路径 8" transform="translate(24.38 69.424) rotate(180)">
        <path d="M 16.96507453918457 34.20744705200195 C 12.60903549194336 34.10899353027344 8.528354644775391 32.36624145507813 5.436994552612305 29.27486991882324 C 2.253324747085571 26.09120941162109 0.500004768371582 21.85831069946289 0.500004768371582 17.35593032836914 C 0.500004768371582 12.85354995727539 2.253324747085571 8.620650291442871 5.436994552612305 5.436990261077881 C 8.522331237792969 2.351644039154053 12.59337902069092 0.6096564531326294 16.93985748291016 0.5050013661384583 C 16.99599266052246 1.496731281280518 16.96144104003906 4.378583908081055 16.92515563964844 7.405660152435303 C 16.89065551757813 10.28312015533447 16.84772491455078 13.86422061920166 16.85593414306641 17.35709953308105 C 16.86335563659668 20.5146312713623 16.90890502929688 23.62980079650879 16.94909477233887 26.37825965881348 C 16.99995231628418 29.85615730285645 17.04831314086914 33.1634521484375 16.96507453918457 34.20744705200195 Z" stroke="none"/>
        <path d="M 16.45870018005371 1.024028778076172 C 12.42722129821777 1.240604400634766 8.667266845703125 2.913808822631836 5.790534973144531 5.79054069519043 C 2.70130443572998 8.879770278930664 0.9999942779541016 12.98710060119629 0.9999942779541016 17.35593032836914 C 0.9999942779541016 21.72476005554199 2.70130443572998 25.83209037780762 5.790534973144531 28.92131996154785 C 8.674997329711914 31.80578231811523 12.44699001312256 33.48021697998047 16.49076461791992 33.68952178955078 C 16.53593444824219 32.32046508789063 16.4919605255127 29.31302452087402 16.44915390014648 26.38555145263672 C 16.408935546875 23.63566017150879 16.36336517333984 20.51887130737305 16.35593414306641 17.35828018188477 C 16.34772491455078 13.8618106842041 16.39067459106445 10.27872085571289 16.42518424987793 7.399660110473633 C 16.45664215087891 4.775951385498047 16.48674964904785 2.264366149902344 16.45870018005371 1.024028778076172 M 17.35593414306641 0 C 17.62167549133301 0 17.3357048034668 8.74690055847168 17.35593414306641 17.35593032836914 C 17.37647438049316 26.09720039367676 17.69244384765625 34.71186065673828 17.35593414306641 34.71186065673828 C 7.770514488220215 34.71186065673828 -5.7220458984375e-06 26.94135093688965 -5.7220458984375e-06 17.35593032836914 C -5.7220458984375e-06 7.77052116394043 7.770514488220215 0 17.35593414306641 0 Z" stroke="none"/>
      </g>
      <g id="椭圆_19" data-name="椭圆 19" transform="translate(11.571 69.424) rotate(180)" stroke="#000" stroke-width="1">
        <ellipse cx="5.785" cy="5.785" rx="5.785" ry="5.785" stroke="none"/>
        <ellipse cx="5.785" cy="5.785" rx="5.285" ry="5.285" fill="none"/>
      </g>
      <g id="椭圆_20" data-name="椭圆 20" transform="translate(11.571 46.282) rotate(180)" stroke="#000" stroke-width="1">
        <ellipse cx="5.785" cy="5.785" rx="5.785" ry="5.785" stroke="none"/>
        <ellipse cx="5.785" cy="5.785" rx="5.285" ry="5.285" fill="none"/>
      </g>
      <g id="椭圆_21" data-name="椭圆 21" transform="translate(13.74 57.853) rotate(180)" fill="#fff" stroke="#fff" stroke-width="1">
        <ellipse cx="5.785" cy="5.785" rx="5.785" ry="5.785" stroke="none"/>
        <ellipse cx="5.785" cy="5.785" rx="5.285" ry="5.285" fill="none"/>
      </g>
      <g id="矩形_14" data-name="矩形 14" transform="translate(0 57.853)" stroke="#000" stroke-width="1">
        <rect width="11.571" height="11.571" rx="5.785" stroke="none"/>
        <rect x="0.5" y="0.5" width="10.571" height="10.571" rx="5.285" fill="none"/>
      </g>
      <g id="矩形_19" data-name="矩形 19" transform="translate(0 57.853)" stroke="#000" stroke-width="1">
        <rect width="11.571" height="11.571" rx="5.785" stroke="none"/>
        <rect x="0.5" y="0.5" width="10.571" height="10.571" rx="5.285" fill="none"/>
      </g>
    </g>
    <g id="i" transform="translate(1013.638 131.571)">
      <g id="矩形_8" data-name="矩形 8" transform="translate(0 28.927)" stroke="#000" stroke-width="1">
        <rect width="11.571" height="23.141" stroke="none"/>
        <rect x="0.5" y="0.5" width="10.571" height="22.141" fill="none"/>
      </g>
      <g id="椭圆_5" data-name="椭圆 5" transform="translate(0 23.141)" stroke="#000" stroke-width="1">
        <ellipse cx="5.785" cy="5.785" rx="5.785" ry="5.785" stroke="none"/>
        <ellipse cx="5.785" cy="5.785" rx="5.285" ry="5.285" fill="none"/>
      </g>
      <g id="椭圆_6" data-name="椭圆 6" stroke="#000" stroke-width="1">
        <ellipse cx="5.785" cy="5.785" rx="5.785" ry="5.785" stroke="none"/>
        <ellipse cx="5.785" cy="5.785" rx="5.285" ry="5.285" fill="none"/>
      </g>
      <g id="矩形_20" data-name="矩形 20" transform="translate(0 46.282)" stroke="#000" stroke-width="1">
        <rect width="11.571" height="11.571" rx="5.785" stroke="none"/>
        <rect x="0.5" y="0.5" width="10.571" height="10.571" rx="5.285" fill="none"/>
      </g>
    </g>
    <g id="c" transform="translate(984.712 154.712)">
      <g id="路径_5" data-name="路径 5" transform="translate(0)">
        <path d="M 16.96507453918457 34.20744705200195 C 12.60903549194336 34.10899353027344 8.528354644775391 32.36624145507813 5.436994552612305 29.27486991882324 C 2.253324747085571 26.09120941162109 0.500004768371582 21.85831069946289 0.500004768371582 17.35593032836914 C 0.500004768371582 12.85354995727539 2.253324747085571 8.620650291442871 5.436994552612305 5.436990261077881 C 8.522331237792969 2.351644039154053 12.59337902069092 0.6096564531326294 16.93985748291016 0.5050013661384583 C 16.99599266052246 1.496731281280518 16.96144104003906 4.378583908081055 16.92515563964844 7.405660152435303 C 16.89065551757813 10.28312015533447 16.84772491455078 13.86422061920166 16.85593414306641 17.35709953308105 C 16.86335563659668 20.5146312713623 16.90890502929688 23.62980079650879 16.94909477233887 26.37825965881348 C 16.99995231628418 29.85615730285645 17.04831314086914 33.1634521484375 16.96507453918457 34.20744705200195 Z" stroke="none"/>
        <path d="M 16.45870018005371 1.024028778076172 C 12.42722129821777 1.240604400634766 8.667266845703125 2.913808822631836 5.790534973144531 5.79054069519043 C 2.70130443572998 8.879770278930664 0.9999942779541016 12.98710060119629 0.9999942779541016 17.35593032836914 C 0.9999942779541016 21.72476005554199 2.70130443572998 25.83209037780762 5.790534973144531 28.92131996154785 C 8.674997329711914 31.80578231811523 12.44699001312256 33.48021697998047 16.49076461791992 33.68952178955078 C 16.53593444824219 32.32046508789063 16.4919605255127 29.31302452087402 16.44915390014648 26.38555145263672 C 16.408935546875 23.63566017150879 16.36336517333984 20.51887130737305 16.35593414306641 17.35828018188477 C 16.34772491455078 13.8618106842041 16.39067459106445 10.27872085571289 16.42518424987793 7.399660110473633 C 16.45664215087891 4.775951385498047 16.48674964904785 2.264366149902344 16.45870018005371 1.024028778076172 M 17.35593414306641 0 C 17.62167549133301 0 17.3357048034668 8.74690055847168 17.35593414306641 17.35593032836914 C 17.37647438049316 26.09720039367676 17.69244384765625 34.71186065673828 17.35593414306641 34.71186065673828 C 7.770514488220215 34.71186065673828 -5.7220458984375e-06 26.94135093688965 -5.7220458984375e-06 17.35593032836914 C -5.7220458984375e-06 7.77052116394043 7.770514488220215 0 17.35593414306641 0 Z" stroke="none" fill="#707070"/>
      </g>
      <g id="椭圆_1" data-name="椭圆 1" transform="translate(11.571)" stroke="#000" stroke-width="1">
        <ellipse cx="5.785" cy="5.785" rx="5.785" ry="5.785" stroke="none"/>
        <ellipse cx="5.785" cy="5.785" rx="5.285" ry="5.285" fill="none"/>
      </g>
      <g id="椭圆_2" data-name="椭圆 2" transform="translate(11.571 23.141)" stroke="#000" stroke-width="1">
        <ellipse cx="5.785" cy="5.785" rx="5.785" ry="5.785" stroke="none"/>
        <ellipse cx="5.785" cy="5.785" rx="5.285" ry="5.285" fill="none"/>
      </g>
      <g id="椭圆_3" data-name="椭圆 3" transform="translate(11.571 11.571)" fill="#fff" stroke="#fff" stroke-width="1">
        <ellipse cx="5.785" cy="5.785" rx="5.785" ry="5.785" stroke="none"/>
        <ellipse cx="5.785" cy="5.785" rx="5.285" ry="5.285" fill="none"/>
      </g>
      <g id="路径_7" data-name="路径 7" transform="translate(0)">
        <path d="M 16.96507453918457 34.20744705200195 C 12.60903549194336 34.10899353027344 8.528354644775391 32.36624145507813 5.436994552612305 29.27486991882324 C 2.253324747085571 26.09120941162109 0.500004768371582 21.85831069946289 0.500004768371582 17.35593032836914 C 0.500004768371582 12.85354995727539 2.253324747085571 8.620650291442871 5.436994552612305 5.436990261077881 C 8.522331237792969 2.351644039154053 12.59337902069092 0.6096564531326294 16.93985748291016 0.5050013661384583 C 16.99599266052246 1.496731281280518 16.96144104003906 4.378583908081055 16.92515563964844 7.405660152435303 C 16.89065551757813 10.28312015533447 16.84772491455078 13.86422061920166 16.85593414306641 17.35709953308105 C 16.86335563659668 20.5146312713623 16.90890502929688 23.62980079650879 16.94909477233887 26.37825965881348 C 16.99995231628418 29.85615730285645 17.04831314086914 33.1634521484375 16.96507453918457 34.20744705200195 Z" stroke="none"/>
        <path d="M 16.45870018005371 1.024028778076172 C 12.42722129821777 1.240604400634766 8.667266845703125 2.913808822631836 5.790534973144531 5.79054069519043 C 2.70130443572998 8.879770278930664 0.9999942779541016 12.98710060119629 0.9999942779541016 17.35593032836914 C 0.9999942779541016 21.72476005554199 2.70130443572998 25.83209037780762 5.790534973144531 28.92131996154785 C 8.674997329711914 31.80578231811523 12.44699001312256 33.48021697998047 16.49076461791992 33.68952178955078 C 16.53593444824219 32.32046508789063 16.4919605255127 29.31302452087402 16.44915390014648 26.38555145263672 C 16.408935546875 23.63566017150879 16.36336517333984 20.51887130737305 16.35593414306641 17.35828018188477 C 16.34772491455078 13.8618106842041 16.39067459106445 10.27872085571289 16.42518424987793 7.399660110473633 C 16.45664215087891 4.775951385498047 16.48674964904785 2.264366149902344 16.45870018005371 1.024028778076172 M 17.35593414306641 0 C 17.62167549133301 0 17.3357048034668 8.74690055847168 17.35593414306641 17.35593032836914 C 17.37647438049316 26.09720039367676 17.69244384765625 34.71186065673828 17.35593414306641 34.71186065673828 C 7.770514488220215 34.71186065673828 -5.7220458984375e-06 26.94135093688965 -5.7220458984375e-06 17.35593032836914 C -5.7220458984375e-06 7.77052116394043 7.770514488220215 0 17.35593414306641 0 Z" stroke="none"/>
      </g>
      <g id="椭圆_12" data-name="椭圆 12" transform="translate(11.571)" stroke="#000" stroke-width="1">
        <ellipse cx="5.785" cy="5.785" rx="5.785" ry="5.785" stroke="none"/>
        <ellipse cx="5.785" cy="5.785" rx="5.285" ry="5.285" fill="none"/>
      </g>
      <g id="椭圆_13" data-name="椭圆 13" transform="translate(11.571 23.141)" stroke="#000" stroke-width="1">
        <ellipse cx="5.785" cy="5.785" rx="5.785" ry="5.785" stroke="none"/>
        <ellipse cx="5.785" cy="5.785" rx="5.285" ry="5.285" fill="none"/>
      </g>
      <g id="椭圆_14" data-name="椭圆 14" transform="translate(11.571 11.571)" fill="#fff" stroke="#fff" stroke-width="1">
        <ellipse cx="5.785" cy="5.785" rx="5.785" ry="5.785" stroke="none"/>
        <ellipse cx="5.785" cy="5.785" rx="5.285" ry="5.285" fill="none"/>
      </g>
    </g>
    <g id="K" transform="translate(950 120)">
      <g id="矩形_21" data-name="矩形 21" transform="translate(12.298 37.794) rotate(-21)" stroke="#000" stroke-width="1">
        <rect width="11.571" height="31.096" stroke="none"/>
        <rect x="0.5" y="0.5" width="10.571" height="30.096" fill="none"/>
      </g>
      <g id="矩形_7" data-name="矩形 7" transform="translate(0)" stroke="#000" stroke-width="1">
        <rect width="11.571" height="69.424" rx="5.785" stroke="none"/>
        <rect x="0.5" y="0.5" width="10.571" height="68.424" rx="5.285" fill="none"/>
      </g>
      <path id="路径_1" data-name="路径 1" d="M73.345,352" transform="translate(-58.395 -317.288)" fill="none" stroke="#707070" stroke-width="1"/>
      <path id="路径_2" data-name="路径 2" d="M64,352" transform="translate(-52.429 -317.288)" fill="none" stroke="#707070" stroke-width="1"/>
      <g id="路径_4" data-name="路径 4" transform="translate(11.571 23.141)" fill="#fff">
        <path d="M 11.57061958312988 22.6412410736084 C 8.61354923248291 22.6412410736084 5.833469390869141 21.48969078063965 3.742509603500366 19.39873123168945 C 1.651549577713013 17.30777168273926 0.4999995827674866 14.52769184112549 0.4999995827674866 11.57062149047852 C 0.4999995827674866 8.613551139831543 1.651549577713013 5.833471298217773 3.742509603500366 3.742511510848999 C 5.833469390869141 1.651551485061646 8.61354923248291 0.5000014901161194 11.57061958312988 0.5000014901161194 C 14.52768993377686 0.5000014901161194 17.30776977539063 1.651551485061646 19.39872932434082 3.742511510848999 C 21.48968887329102 5.833471298217773 22.64123916625977 8.613551139831543 22.64123916625977 11.57062149047852 C 22.64123916625977 14.52769184112549 21.48968887329102 17.30777168273926 19.39872932434082 19.39873123168945 C 17.30776977539063 21.48969078063965 14.52768993377686 22.6412410736084 11.57061958312988 22.6412410736084 Z" stroke="none"/>
        <path d="M 11.57061958312988 1.000001907348633 C 5.741960525512695 1.000001907348633 1 5.741962432861328 1 11.57062149047852 C 1 17.3992805480957 5.741960525512695 22.1412410736084 11.57061958312988 22.1412410736084 C 17.3992805480957 22.1412410736084 22.14123916625977 17.3992805480957 22.14123916625977 11.57062149047852 C 22.14123916625977 5.741962432861328 17.3992805480957 1.000001907348633 11.57061958312988 1.000001907348633 M 11.57061958312988 1.9073486328125e-06 C 17.96089935302734 1.9073486328125e-06 23.14123916625977 5.180341720581055 23.14123916625977 11.57062149047852 C 23.14123916625977 17.96090126037598 17.96089935302734 23.1412410736084 11.57061958312988 23.1412410736084 C 5.180339813232422 23.1412410736084 0 17.96090126037598 0 11.57062149047852 C 0 5.180341720581055 5.180339813232422 1.9073486328125e-06 11.57061958312988 1.9073486328125e-06 Z" stroke="none" fill="#fff"/>
      </g>
      <g id="矩形_13" data-name="矩形 13" transform="translate(0 57.853)" stroke="#000" stroke-width="1">
        <rect width="11.571" height="11.571" rx="5.785" stroke="none"/>
        <rect x="0.5" y="0.5" width="10.571" height="10.571" rx="5.285" fill="none"/>
      </g>
      <g id="路径_11" data-name="路径 11" transform="translate(23.394 66.7) rotate(-21)">
        <path d="M 7.231639385223389 3.838982105255127 L 4.338979244232178 3.838982105255127 C 2.391541004180908 3.838982105255127 0.7781460285186768 2.381515502929688 0.5324141979217529 0.5000020265579224 L 11.03820419311523 0.5000020265579224 C 10.79247283935547 2.381515502929688 9.1790771484375 3.838982105255127 7.231639385223389 3.838982105255127 Z" stroke="none"/>
        <path d="M 1.152929306030273 1.000001907348633 C 1.578891754150391 2.354090929031372 2.846103668212891 3.338982105255127 4.338979244232178 3.338982105255127 L 7.231639385223389 3.338982105255127 C 8.724514961242676 3.338982105255127 9.991726875305176 2.354090929031372 10.41768932342529 1.000001907348633 L 1.152929306030273 1.000001907348633 M -9.5367431640625e-07 1.9073486328125e-06 L 11.57061958312988 1.9073486328125e-06 C 11.57061958312988 2.396352052688599 9.627988815307617 4.338982105255127 7.231639385223389 4.338982105255127 L 4.338979244232178 4.338982105255127 C 1.942628860473633 4.338982105255127 -9.5367431640625e-07 2.396352052688599 -9.5367431640625e-07 1.9073486328125e-06 Z" stroke="none"/>
      </g>
    </g>
  </g>
</svg>
