<svg xmlns="http://www.w3.org/2000/svg" xmlns:xlink="http://www.w3.org/1999/xlink" viewBox="0 0 324 301"><defs><style>.a{fill:#fedd55;stroke:#fedd55;stroke-width:3px;}.b{fill:#fff;}.c,.d{stroke:none;}.d{fill:#707070;}.e{fill:none;}.f{filter:url(#e);}.g{filter:url(#c);}.h{filter:url(#a);}</style><filter id="a" x="0" y="0" width="324" height="301" filterUnits="userSpaceOnUse"><feOffset dy="3" input="SourceAlpha"/><feGaussianBlur stdDeviation="3" result="b"/><feFlood flood-opacity="0.161"/><feComposite operator="in" in2="b"/><feComposite in="SourceGraphic"/></filter><filter id="c" x="27" y="43" width="258" height="258" filterUnits="userSpaceOnUse"><feOffset dy="3" input="SourceAlpha"/><feGaussianBlur stdDeviation="3" result="d"/><feFlood flood-opacity="0.161"/><feComposite operator="in" in2="d"/><feComposite in="SourceGraphic"/></filter><filter id="e" x="39" y="50" width="116.813" height="101.94" filterUnits="userSpaceOnUse"><feOffset dy="3" input="SourceAlpha"/><feGaussianBlur stdDeviation="3" result="f"/><feFlood flood-opacity="0.161"/><feComposite operator="in" in2="f"/><feComposite in="SourceGraphic"/></filter></defs><g transform="translate(-795 -75)"><g transform="translate(-3 -21)"><g class="h" transform="matrix(1, 0, 0, 1, 798, 96)"><g transform="translate(3924 -755)"><path class="c" d="M -3768 1042.5 C -3776.041015625 1042.5 -3784.07666015625 1041.690063476563 -3791.88330078125 1040.092407226563 C -3799.490966796875 1038.53564453125 -3806.97412109375 1036.212768554688 -3814.125 1033.188232421875 C -3821.146240234375 1030.218505859375 -3827.91845703125 1026.542602539063 -3834.25341796875 1022.262878417969 C -3840.5283203125 1018.023498535156 -3846.42919921875 1013.15478515625 -3851.7919921875 1007.792053222656 C -3857.15478515625 1002.429321289063 -3862.0234375 996.5284423828125 -3866.262939453125 990.2532958984375 C -3870.542724609375 983.9183959960938 -3874.218505859375 977.146240234375 -3877.188232421875 970.1249389648438 C -3880.212890625 962.9741821289063 -3882.53564453125 955.4910278320313 -3884.092529296875 947.8833618164063 C -3885.68994140625 940.0764770507813 -3886.5 932.0409545898438 -3886.5 923.9999389648438 C -3886.5 923.8280639648438 -3886.49951171875 923.6544189453125 -3886.498779296875 923.4827270507813 L -3886.495361328125 922.6438598632813 L -3887.208251953125 922.2017211914063 C -3895.09423828125 917.3107299804688 -3901.686767578125 910.4649658203125 -3906.27294921875 902.4044799804688 C -3908.599609375 898.315185546875 -3910.395751953125 893.9430541992188 -3911.611328125 889.4093627929688 C -3912.864501953125 884.7349243164063 -3913.5 879.8868408203125 -3913.5 874.9999389648438 C -3913.5 867.5067138671875 -3912.03271484375 860.238525390625 -3909.13916015625 853.397216796875 C -3907.74853515625 850.1089477539063 -3906.02685546875 846.937255859375 -3904.0224609375 843.9703369140625 C -3902.036865234375 841.0311889648438 -3899.75634765625 838.267333984375 -3897.24462890625 835.7554931640625 C -3894.73291015625 833.24365234375 -3891.968994140625 830.9632568359375 -3889.02978515625 828.9776000976563 C -3886.06298828125 826.9732055664063 -3882.89111328125 825.251708984375 -3879.60302734375 823.8609008789063 C -3872.76171875 820.96728515625 -3865.493408203125 819.5000610351563 -3858.000244140625 819.5000610351563 C -3853.7421875 819.5000610351563 -3849.5 819.9839477539063 -3845.3916015625 820.938232421875 L -3844.043212890625 821.2514038085938 L -3843.623046875 819.9324340820313 C -3841.000244140625 811.7000732421875 -3837.103271484375 803.953857421875 -3832.04052734375 796.9089965820313 C -3827.041015625 789.9524536132813 -3821.018310546875 783.8348388671875 -3814.1396484375 778.7260131835938 C -3807.181884765625 773.5584106445313 -3799.5068359375 769.5426025390625 -3791.3271484375 766.7901000976563 C -3782.867919921875 763.9435424804688 -3774.010009765625 762.500244140625 -3764.999267578125 762.500244140625 C -3754.47412109375 762.500244140625 -3744.22265625 764.4547729492188 -3734.52978515625 768.3095703125 C -3729.863525390625 770.1653442382813 -3725.337646484375 772.46728515625 -3721.077880859375 775.1516723632813 C -3716.8623046875 777.808349609375 -3712.861328125 780.8683471679688 -3709.18603515625 784.2467651367188 C -3694.02197265625 798.1856689453125 -3684.662353515625 817.1136474609375 -3682.83154296875 837.5438232421875 L -3682.69482421875 839.0718383789063 L -3681.170166015625 838.9005737304688 C -3678.805419921875 838.635009765625 -3676.392822265625 838.5003662109375 -3673.999755859375 838.5003662109375 C -3665.4267578125 838.5003662109375 -3657.111083984375 840.1790161132813 -3649.283447265625 843.48974609375 C -3645.521240234375 845.0810546875 -3641.892333984375 847.0507202148438 -3638.497802734375 849.3440551757813 C -3635.135009765625 851.6158447265625 -3631.97265625 854.2249145507813 -3629.098876953125 857.0987548828125 C -3626.22509765625 859.9725952148438 -3623.615966796875 863.1348266601563 -3621.34423828125 866.49755859375 C -3619.05078125 869.8921508789063 -3617.0810546875 873.52099609375 -3615.48974609375 877.2832641601563 C -3612.178955078125 885.1109008789063 -3610.500244140625 893.4268188476563 -3610.500244140625 902 C -3610.500244140625 908.9910278320313 -3611.62841796875 915.8602905273438 -3613.853271484375 922.4170532226563 C -3616.00439453125 928.7567138671875 -3619.14111328125 934.6978759765625 -3623.176513671875 940.0755004882813 C -3627.167236328125 945.393798828125 -3631.942138671875 950.0368041992188 -3637.368408203125 953.87548828125 C -3642.866943359375 957.765380859375 -3648.906494140625 960.7369384765625 -3655.319091796875 962.7076416015625 L -3656.039794921875 962.9291381835938 L -3656.2919921875 963.6398315429688 C -3660.326904296875 975.0111083984375 -3666.074951171875 985.6791381835938 -3673.37646484375 995.3477172851563 C -3680.60107421875 1004.914306640625 -3689.199462890625 1013.310668945313 -3698.9326171875 1020.303527832031 C -3708.786865234375 1027.38330078125 -3719.60693359375 1032.880004882813 -3731.0927734375 1036.640747070313 C -3742.96728515625 1040.528686523438 -3755.384521484375 1042.5 -3768 1042.5 Z"/><path class="d" d="M -3768 1041 C -3755.54345703125 1041 -3743.282958984375 1039.0537109375 -3731.5595703125 1035.215209960938 C -3720.219970703125 1031.502319335938 -3709.537109375 1026.075439453125 -3699.807861328125 1019.085266113281 C -3690.197265625 1012.180541992188 -3681.707275390625 1003.889892578125 -3674.573486328125 994.4437255859375 C -3667.3642578125 984.8976440429688 -3661.689208984375 974.3649291992188 -3657.705810546875 963.1383056640625 L -3657.201416015625 961.7169189453125 L -3655.759765625 961.2738647460938 C -3649.499267578125 959.3499755859375 -3643.60302734375 956.4488525390625 -3638.234619140625 952.6509399414063 C -3632.93603515625 948.9024658203125 -3628.2734375 944.3685302734375 -3624.376220703125 939.1752319335938 C -3620.436279296875 933.9246826171875 -3617.373779296875 928.124267578125 -3615.273681640625 921.93505859375 C -3613.1015625 915.5338745117188 -3612.000244140625 908.8267211914063 -3612.000244140625 902 C -3612.000244140625 893.628662109375 -3613.63916015625 885.5093383789063 -3616.871337890625 877.8676147460938 C -3618.4248046875 874.1945190429688 -3620.347900390625 870.6515502929688 -3622.587158203125 867.3372192382813 C -3624.805419921875 864.0536499023438 -3627.353271484375 860.9657592773438 -3630.15966796875 858.159423828125 C -3632.9658203125 855.3530883789063 -3636.0537109375 852.8053588867188 -3639.33740234375 850.5869750976563 C -3642.65185546875 848.347900390625 -3646.19482421875 846.4248657226563 -3649.86767578125 844.8712768554688 C -3657.509521484375 841.6392211914063 -3665.628662109375 840.0003662109375 -3673.999755859375 840.0003662109375 C -3676.33740234375 840.0003662109375 -3678.693359375 840.1318969726563 -3681.0029296875 840.3912353515625 L -3684.0517578125 840.733642578125 L -3684.32568359375 837.677734375 C -3686.123046875 817.6201171875 -3695.3125 799.0368041992188 -3710.201171875 785.35107421875 C -3713.81005859375 782.0338134765625 -3717.738525390625 779.0292358398438 -3721.877685546875 776.4207763671875 C -3726.059814453125 773.7852172851563 -3730.5029296875 771.5252685546875 -3735.083984375 769.7034301757813 C -3744.599853515625 765.9190673828125 -3754.664794921875 764.000244140625 -3764.999267578125 764.000244140625 C -3773.84716796875 764.000244140625 -3782.544189453125 765.4171752929688 -3790.8486328125 768.2117309570313 C -3798.87890625 770.9140014648438 -3806.414306640625 774.8566284179688 -3813.245361328125 779.93017578125 C -3819.999755859375 784.9466552734375 -3825.913330078125 790.9537353515625 -3830.822509765625 797.784423828125 C -3835.793212890625 804.7009887695313 -3839.619140625 812.3058471679688 -3842.19384765625 820.3878173828125 L -3843.0341796875 823.0257568359375 L -3845.73095703125 822.3993530273438 C -3849.728271484375 821.4708862304688 -3853.856201171875 821.0000610351563 -3858.000244140625 821.0000610351563 C -3865.29150390625 821.0000610351563 -3872.36328125 822.4274291992188 -3879.0185546875 825.2423706054688 C -3882.2177734375 826.595458984375 -3885.303466796875 828.2703857421875 -3888.190185546875 830.2205200195313 C -3891.050048828125 832.1527709960938 -3893.73974609375 834.371826171875 -3896.183837890625 836.816162109375 C -3898.628173828125 839.260498046875 -3900.847412109375 841.9500122070313 -3902.779541015625 844.81005859375 C -3904.729736328125 847.6967163085938 -3906.404541015625 850.782470703125 -3907.7578125 853.9815673828125 C -3910.57275390625 860.6370239257813 -3912 867.7086181640625 -3912 874.9999389648438 C -3912 879.7557983398438 -3911.3818359375 884.47314453125 -3910.162353515625 889.0209350585938 C -3908.97998046875 893.43115234375 -3907.232666015625 897.6845092773438 -3904.96923828125 901.6627197265625 C -3900.506591796875 909.5061645507813 -3894.091552734375 916.1676025390625 -3886.417724609375 920.9269409179688 L -3884.991943359375 921.8111572265625 L -3884.998779296875 923.4887084960938 C -3884.99951171875 923.6583862304688 -3885 923.830078125 -3885 923.9999389648438 C -3885 931.940185546875 -3884.2001953125 939.87451171875 -3882.622802734375 947.5826416015625 C -3881.0859375 955.0933227539063 -3878.792724609375 962.4810180664063 -3875.806640625 969.5406494140625 C -3872.874755859375 976.4727172851563 -3869.24560546875 983.158935546875 -3865.02001953125 989.41357421875 C -3860.833984375 995.6095581054688 -3856.026611328125 1001.436157226563 -3850.7314453125 1006.731384277344 C -3845.436279296875 1012.026611328125 -3839.609619140625 1016.833984375 -3833.41357421875 1021.019958496094 C -3827.158935546875 1025.245483398438 -3820.47265625 1028.874755859375 -3813.540771484375 1031.806762695313 C -3806.481201171875 1034.792724609375 -3799.09326171875 1037.0859375 -3791.582763671875 1038.622924804688 C -3783.87451171875 1040.2001953125 -3775.940185546875 1041 -3768 1041 M -3768 1044 C -3834.27392578125 1044 -3888 990.27392578125 -3888 923.9999389648438 C -3888 923.8259887695313 -3887.99951171875 923.6502075195313 -3887.998779296875 923.4764404296875 C -3904.205078125 913.4253540039063 -3915 895.4725952148438 -3915 874.9999389648438 C -3915 843.5194702148438 -3889.480712890625 818.0000610351563 -3858.000244140625 818.0000610351563 C -3853.54638671875 818.0000610351563 -3849.212158203125 818.5108642578125 -3845.05224609375 819.4771118164063 C -3834.24853515625 785.5654296875 -3802.491943359375 761.000244140625 -3764.999267578125 761.000244140625 C -3721.16748046875 761.000244140625 -3685.176025390625 794.576171875 -3681.337646484375 837.4099731445313 C -3678.9296875 837.1395263671875 -3676.480224609375 837.0003662109375 -3673.999755859375 837.0003662109375 C -3638.101806640625 837.0003662109375 -3609.000244140625 866.10107421875 -3609.000244140625 902 C -3609.000244140625 931.2445068359375 -3628.3115234375 955.9771118164063 -3654.87841796875 964.1414794921875 C -3671.390625 1010.677307128906 -3715.802734375 1044 -3768 1044 Z"/></g></g><g class="g" transform="matrix(1, 0, 0, 1, 798, 96)"><g class="a" transform="translate(36 49)"><circle class="c" cx="120" cy="120" r="120"/><circle class="e" cx="120" cy="120" r="118.5"/></g></g><g class="f" transform="matrix(1, 0, 0, 1, 798, 96)"><path class="b" d="M-3901.462,844.94H-3915a119.942,119.942,0,0,1,4.244-11.709,120.19,120.19,0,0,1,11.064-20.384,121.005,121.005,0,0,1,14.653-17.759,120.953,120.953,0,0,1,17.76-14.653,120.124,120.124,0,0,1,20.383-11.064,119.459,119.459,0,0,1,22.526-6.993c2.688-.55,5.442-1.014,8.184-1.379v11.765a119.536,119.536,0,0,0-20.71,6.606,120.029,120.029,0,0,0-20.383,11.064,120.871,120.871,0,0,0-17.76,14.653,120.892,120.892,0,0,0-14.653,17.759,120.12,120.12,0,0,0-11.064,20.384c-.235.555-.472,1.13-.706,1.708Z" transform="translate(3963 -705)"/></g></g><g transform="translate(-4 3)"><ellipse cx="13.5" cy="20.331" rx="13.5" ry="20.331" transform="translate(900 205)"/><ellipse cx="13.5" cy="20.331" rx="13.5" ry="20.331" transform="translate(995.041 205)"/></g></g></svg>