<svg id="组_1" data-name="组 1" xmlns="http://www.w3.org/2000/svg" viewBox="0 0 259.833 37.119">
  <defs>
    <style>
      .cls-1 {
        stroke: #575757;
        stroke-width: 2px;
      }

      .cls-2 {
        stroke: none;
      }

      .cls-3 {
        fill: none;
      }
    </style>
  </defs>
  <g id="rect_165" data-name="rect 165" class="cls-1" transform="translate(7.424 14.848)">
    <rect class="cls-2" width="7.424" height="7.424"/>
    <rect class="cls-3" x="1" y="1" width="5.424" height="5.424"/>
  </g>
  <g id="rect_166" data-name="rect 166" class="cls-1" transform="translate(14.848 7.424)">
    <rect class="cls-2" width="7.424" height="7.424"/>
    <rect class="cls-3" x="1" y="1" width="5.424" height="5.424"/>
  </g>
  <g id="rect_167" data-name="rect 167" class="cls-1" transform="translate(7.424 0)">
    <rect class="cls-2" width="7.424" height="7.424"/>
    <rect class="cls-3" x="1" y="1" width="5.424" height="5.424"/>
  </g>
  <g id="rect_168" data-name="rect 168" class="cls-1" transform="translate(0 29.695)">
    <rect class="cls-2" width="7.424" height="7.424"/>
    <rect class="cls-3" x="1" y="1" width="5.424" height="5.424"/>
  </g>
  <g id="rect_169" data-name="rect 169" class="cls-1" transform="translate(0 22.271)">
    <rect class="cls-2" width="7.424" height="7.424"/>
    <rect class="cls-3" x="1" y="1" width="5.424" height="5.424"/>
  </g>
  <g id="rect_170" data-name="rect 170" class="cls-1" transform="translate(0 14.848)">
    <rect class="cls-2" width="7.424" height="7.424"/>
    <rect class="cls-3" x="1" y="1" width="5.424" height="5.424"/>
  </g>
  <g id="rect_171" data-name="rect 171" class="cls-1" transform="translate(0 7.424)">
    <rect class="cls-2" width="7.424" height="7.424"/>
    <rect class="cls-3" x="1" y="1" width="5.424" height="5.424"/>
  </g>
  <g id="rect_172" data-name="rect 172" class="cls-1" transform="translate(0 0)">
    <rect class="cls-2" width="7.424" height="7.424"/>
    <rect class="cls-3" x="1" y="1" width="5.424" height="5.424"/>
  </g>
  <g id="rect_173" data-name="rect 173" class="cls-1" transform="translate(29.695 7.424)">
    <rect class="cls-2" width="7.424" height="7.424"/>
    <rect class="cls-3" x="1" y="1" width="5.424" height="5.424"/>
  </g>
  <g id="rect_174" data-name="rect 174" class="cls-1" transform="translate(29.695 0)">
    <rect class="cls-2" width="7.424" height="7.424"/>
    <rect class="cls-3" x="1" y="1" width="5.424" height="5.424"/>
  </g>
  <g id="rect_175" data-name="rect 175" class="cls-1" transform="translate(51.966 7.424)">
    <rect class="cls-2" width="7.424" height="7.424"/>
    <rect class="cls-3" x="1" y="1" width="5.424" height="5.424"/>
  </g>
  <g id="rect_176" data-name="rect 176" class="cls-1" transform="translate(51.966 14.848)">
    <rect class="cls-2" width="7.424" height="7.424"/>
    <rect class="cls-3" x="1" y="1" width="5.424" height="5.424"/>
  </g>
  <g id="rect_177" data-name="rect 177" class="cls-1" transform="translate(51.966 22.271)">
    <rect class="cls-2" width="7.424" height="7.424"/>
    <rect class="cls-3" x="1" y="1" width="5.424" height="5.424"/>
  </g>
  <g id="rect_178" data-name="rect 178" class="cls-1" transform="translate(44.543 29.695)">
    <rect class="cls-2" width="7.424" height="7.424"/>
    <rect class="cls-3" x="1" y="1" width="5.424" height="5.424"/>
  </g>
  <g id="rect_179" data-name="rect 179" class="cls-1" transform="translate(29.695 22.271)">
    <rect class="cls-2" width="7.424" height="7.424"/>
    <rect class="cls-3" x="1" y="1" width="5.424" height="5.424"/>
  </g>
  <g id="rect_180" data-name="rect 180" class="cls-1" transform="translate(37.119 29.695)">
    <rect class="cls-2" width="7.424" height="7.424"/>
    <rect class="cls-3" x="1" y="1" width="5.424" height="5.424"/>
  </g>
  <g id="rect_181" data-name="rect 181" class="cls-1" transform="translate(29.695 14.848)">
    <rect class="cls-2" width="7.424" height="7.424"/>
    <rect class="cls-3" x="1" y="1" width="5.424" height="5.424"/>
  </g>
  <g id="rect_182" data-name="rect 182" class="cls-1" transform="translate(51.966 0)">
    <rect class="cls-2" width="7.424" height="7.424"/>
    <rect class="cls-3" x="1" y="1" width="5.424" height="5.424"/>
  </g>
  <g id="rect_183" data-name="rect 183" class="cls-1" transform="translate(66.814 29.695)">
    <rect class="cls-2" width="7.424" height="7.424"/>
    <rect class="cls-3" x="1" y="1" width="5.424" height="5.424"/>
  </g>
  <g id="rect_184" data-name="rect 184" class="cls-1" transform="translate(66.814 22.271)">
    <rect class="cls-2" width="7.424" height="7.424"/>
    <rect class="cls-3" x="1" y="1" width="5.424" height="5.424"/>
  </g>
  <g id="rect_185" data-name="rect 185" class="cls-1" transform="translate(66.814 14.848)">
    <rect class="cls-2" width="7.424" height="7.424"/>
    <rect class="cls-3" x="1" y="1" width="5.424" height="5.424"/>
  </g>
  <g id="rect_186" data-name="rect 186" class="cls-1" transform="translate(66.814 7.424)">
    <rect class="cls-2" width="7.424" height="7.424"/>
    <rect class="cls-3" x="1" y="1" width="5.424" height="5.424"/>
  </g>
  <g id="rect_187" data-name="rect 187" class="cls-1" transform="translate(66.814 0)">
    <rect class="cls-2" width="7.424" height="7.424"/>
    <rect class="cls-3" x="1" y="1" width="5.424" height="5.424"/>
  </g>
  <g id="rect_188" data-name="rect 188" class="cls-1" transform="translate(74.238 29.695)">
    <rect class="cls-2" width="7.424" height="7.424"/>
    <rect class="cls-3" x="1" y="1" width="5.424" height="5.424"/>
  </g>
  <g id="rect_189" data-name="rect 189" class="cls-1" transform="translate(81.662 22.271)">
    <rect class="cls-2" width="7.424" height="7.424"/>
    <rect class="cls-3" x="1" y="1" width="5.424" height="5.424"/>
  </g>
  <g id="rect_190" data-name="rect 190" class="cls-1" transform="translate(74.238 14.848)">
    <rect class="cls-2" width="7.424" height="7.424"/>
    <rect class="cls-3" x="1" y="1" width="5.424" height="5.424"/>
  </g>
  <g id="rect_191" data-name="rect 191" class="cls-1" transform="translate(81.662 7.424)">
    <rect class="cls-2" width="7.424" height="7.424"/>
    <rect class="cls-3" x="1" y="1" width="5.424" height="5.424"/>
  </g>
  <g id="rect_192" data-name="rect 192" class="cls-1" transform="translate(74.238 0)">
    <rect class="cls-2" width="7.424" height="7.424"/>
    <rect class="cls-3" x="1" y="1" width="5.424" height="5.424"/>
  </g>
  <g id="rect_193" data-name="rect 193" class="cls-1" transform="translate(96.509 0)">
    <rect class="cls-2" width="7.424" height="7.424"/>
    <rect class="cls-3" x="1" y="1" width="5.424" height="5.424"/>
  </g>
  <g id="rect_194" data-name="rect 194" class="cls-1" transform="translate(96.509 29.695)">
    <rect class="cls-2" width="7.424" height="7.424"/>
    <rect class="cls-3" x="1" y="1" width="5.424" height="5.424"/>
  </g>
  <g id="rect_195" data-name="rect 195" class="cls-1" transform="translate(96.509 22.271)">
    <rect class="cls-2" width="7.424" height="7.424"/>
    <rect class="cls-3" x="1" y="1" width="5.424" height="5.424"/>
  </g>
  <g id="rect_196" data-name="rect 196" class="cls-1" transform="translate(96.509 14.848)">
    <rect class="cls-2" width="7.424" height="7.424"/>
    <rect class="cls-3" x="1" y="1" width="5.424" height="5.424"/>
  </g>
  <g id="rect_197" data-name="rect 197" class="cls-1" transform="translate(96.509 7.424)">
    <rect class="cls-2" width="7.424" height="7.424"/>
    <rect class="cls-3" x="1" y="1" width="5.424" height="5.424"/>
  </g>
  <g id="rect_198" data-name="rect 198" class="cls-1" transform="translate(96.509 7.424)">
    <rect class="cls-2" width="7.424" height="7.424"/>
    <rect class="cls-3" x="1" y="1" width="5.424" height="5.424"/>
  </g>
  <g id="rect_199" data-name="rect 199" class="cls-1" transform="translate(96.509 7.424)">
    <rect class="cls-2" width="7.424" height="7.424"/>
    <rect class="cls-3" x="1" y="1" width="5.424" height="5.424"/>
  </g>
  <g id="rect_201" data-name="rect 201" class="cls-1" transform="translate(111.357 29.695)">
    <rect class="cls-2" width="7.424" height="7.424"/>
    <rect class="cls-3" x="1" y="1" width="5.424" height="5.424"/>
  </g>
  <g id="rect_202" data-name="rect 202" class="cls-1" transform="translate(103.933 29.695)">
    <rect class="cls-2" width="7.424" height="7.424"/>
    <rect class="cls-3" x="1" y="1" width="5.424" height="5.424"/>
  </g>
  <g id="rect_203" data-name="rect 203" class="cls-1" transform="translate(126.204 0)">
    <rect class="cls-2" width="7.424" height="7.424"/>
    <rect class="cls-3" x="1" y="1" width="5.424" height="5.424"/>
  </g>
  <g id="rect_204" data-name="rect 204" class="cls-1" transform="translate(126.204 29.695)">
    <rect class="cls-2" width="7.424" height="7.424"/>
    <rect class="cls-3" x="1" y="1" width="5.424" height="5.424"/>
  </g>
  <g id="rect_205" data-name="rect 205" class="cls-1" transform="translate(126.204 22.271)">
    <rect class="cls-2" width="7.424" height="7.424"/>
    <rect class="cls-3" x="1" y="1" width="5.424" height="5.424"/>
  </g>
  <g id="rect_206" data-name="rect 206" class="cls-1" transform="translate(126.204 14.848)">
    <rect class="cls-2" width="7.424" height="7.424"/>
    <rect class="cls-3" x="1" y="1" width="5.424" height="5.424"/>
  </g>
  <g id="rect_207" data-name="rect 207" class="cls-1" transform="translate(126.204 7.424)">
    <rect class="cls-2" width="7.424" height="7.424"/>
    <rect class="cls-3" x="1" y="1" width="5.424" height="5.424"/>
  </g>
  <g id="rect_208" data-name="rect 208" class="cls-1" transform="translate(126.204 7.424)">
    <rect class="cls-2" width="7.424" height="7.424"/>
    <rect class="cls-3" x="1" y="1" width="5.424" height="5.424"/>
  </g>
  <g id="rect_209" data-name="rect 209" class="cls-1" transform="translate(126.204 7.424)">
    <rect class="cls-2" width="7.424" height="7.424"/>
    <rect class="cls-3" x="1" y="1" width="5.424" height="5.424"/>
  </g>
  <g id="rect_210" data-name="rect 210" class="cls-1" transform="translate(141.052 29.695)">
    <rect class="cls-2" width="7.424" height="7.424"/>
    <rect class="cls-3" x="1" y="1" width="5.424" height="5.424"/>
  </g>
  <g id="rect_211" data-name="rect 211" class="cls-1" transform="translate(148.476 29.695)">
    <rect class="cls-2" width="7.424" height="7.424"/>
    <rect class="cls-3" x="1" y="1" width="5.424" height="5.424"/>
  </g>
  <g id="rect_212" data-name="rect 212" class="cls-1" transform="translate(148.476 0)">
    <rect class="cls-2" width="7.424" height="7.424"/>
    <rect class="cls-3" x="1" y="1" width="5.424" height="5.424"/>
  </g>
  <g id="rect_213" data-name="rect 213" class="cls-1" transform="translate(155.899 22.271)">
    <rect class="cls-2" width="7.424" height="7.424"/>
    <rect class="cls-3" x="1" y="1" width="5.424" height="5.424"/>
  </g>
  <g id="rect_214" data-name="rect 214" class="cls-1" transform="translate(148.476 14.848)">
    <rect class="cls-2" width="7.424" height="7.424"/>
    <rect class="cls-3" x="1" y="1" width="5.424" height="5.424"/>
  </g>
  <g id="rect_215" data-name="rect 215" class="cls-1" transform="translate(141.052 7.424)">
    <rect class="cls-2" width="7.424" height="7.424"/>
    <rect class="cls-3" x="1" y="1" width="5.424" height="5.424"/>
  </g>
  <g id="rect_216" data-name="rect 216" class="cls-1" transform="translate(155.899 0)">
    <rect class="cls-2" width="7.424" height="7.424"/>
    <rect class="cls-3" x="1" y="1" width="5.424" height="5.424"/>
  </g>
  <g id="rect_217" data-name="rect 217" class="cls-1" transform="translate(170.747 0)">
    <rect class="cls-2" width="7.424" height="7.424"/>
    <rect class="cls-3" x="1" y="1" width="5.424" height="5.424"/>
  </g>
  <g id="rect_218" data-name="rect 218" class="cls-1" transform="translate(170.747 29.695)">
    <rect class="cls-2" width="7.424" height="7.424"/>
    <rect class="cls-3" x="1" y="1" width="5.424" height="5.424"/>
  </g>
  <g id="rect_219" data-name="rect 219" class="cls-1" transform="translate(170.747 22.271)">
    <rect class="cls-2" width="7.424" height="7.424"/>
    <rect class="cls-3" x="1" y="1" width="5.424" height="5.424"/>
  </g>
  <g id="rect_220" data-name="rect 220" class="cls-1" transform="translate(170.747 14.848)">
    <rect class="cls-2" width="7.424" height="7.424"/>
    <rect class="cls-3" x="1" y="1" width="5.424" height="5.424"/>
  </g>
  <g id="rect_221" data-name="rect 221" class="cls-1" transform="translate(170.747 7.424)">
    <rect class="cls-2" width="7.424" height="7.424"/>
    <rect class="cls-3" x="1" y="1" width="5.424" height="5.424"/>
  </g>
  <g id="rect_222" data-name="rect 222" class="cls-1" transform="translate(170.747 7.424)">
    <rect class="cls-2" width="7.424" height="7.424"/>
    <rect class="cls-3" x="1" y="1" width="5.424" height="5.424"/>
  </g>
  <g id="rect_223" data-name="rect 223" class="cls-1" transform="translate(170.747 7.424)">
    <rect class="cls-2" width="7.424" height="7.424"/>
    <rect class="cls-3" x="1" y="1" width="5.424" height="5.424"/>
  </g>
  <g id="rect_224" data-name="rect 224" class="cls-1" transform="translate(193.018 0)">
    <rect class="cls-2" width="7.424" height="7.424"/>
    <rect class="cls-3" x="1" y="1" width="5.424" height="5.424"/>
  </g>
  <g id="rect_225" data-name="rect 225" class="cls-1" transform="translate(193.018 29.695)">
    <rect class="cls-2" width="7.424" height="7.424"/>
    <rect class="cls-3" x="1" y="1" width="5.424" height="5.424"/>
  </g>
  <g id="rect_226" data-name="rect 226" class="cls-1" transform="translate(193.018 22.271)">
    <rect class="cls-2" width="7.424" height="7.424"/>
    <rect class="cls-3" x="1" y="1" width="5.424" height="5.424"/>
  </g>
  <g id="rect_227" data-name="rect 227" class="cls-1" transform="translate(193.018 14.848)">
    <rect class="cls-2" width="7.424" height="7.424"/>
    <rect class="cls-3" x="1" y="1" width="5.424" height="5.424"/>
  </g>
  <g id="rect_228" data-name="rect 228" class="cls-1" transform="translate(193.018 7.424)">
    <rect class="cls-2" width="7.424" height="7.424"/>
    <rect class="cls-3" x="1" y="1" width="5.424" height="5.424"/>
  </g>
  <g id="rect_229" data-name="rect 229" class="cls-1" transform="translate(193.018 7.424)">
    <rect class="cls-2" width="7.424" height="7.424"/>
    <rect class="cls-3" x="1" y="1" width="5.424" height="5.424"/>
  </g>
  <g id="rect_230" data-name="rect 230" class="cls-1" transform="translate(193.018 7.424)">
    <rect class="cls-2" width="7.424" height="7.424"/>
    <rect class="cls-3" x="1" y="1" width="5.424" height="5.424"/>
  </g>
  <g id="rect_231" data-name="rect 231" class="cls-1" transform="translate(185.595 14.848)">
    <rect class="cls-2" width="7.424" height="7.424"/>
    <rect class="cls-3" x="1" y="1" width="5.424" height="5.424"/>
  </g>
  <g id="rect_232" data-name="rect 232" class="cls-1" transform="translate(178.171 14.848)">
    <rect class="cls-2" width="7.424" height="7.424"/>
    <rect class="cls-3" x="1" y="1" width="5.424" height="5.424"/>
  </g>
  <g id="rect_233" data-name="rect 233" class="cls-1" transform="translate(170.747 0)">
    <rect class="cls-2" width="7.424" height="7.424"/>
    <rect class="cls-3" x="1" y="1" width="5.424" height="5.424"/>
  </g>
  <g id="rect_234" data-name="rect 234" class="cls-1" transform="translate(252.409 0)">
    <rect class="cls-2" width="7.424" height="7.424"/>
    <rect class="cls-3" x="1" y="1" width="5.424" height="5.424"/>
  </g>
  <g id="rect_235" data-name="rect 235" class="cls-1" transform="translate(252.409 29.695)">
    <rect class="cls-2" width="7.424" height="7.424"/>
    <rect class="cls-3" x="1" y="1" width="5.424" height="5.424"/>
  </g>
  <g id="rect_237" data-name="rect 237" class="cls-1" transform="translate(252.409 14.848)">
    <rect class="cls-2" width="7.424" height="7.424"/>
    <rect class="cls-3" x="1" y="1" width="5.424" height="5.424"/>
  </g>
  <g id="rect_238" data-name="rect 238" class="cls-1" transform="translate(252.409 7.424)">
    <rect class="cls-2" width="7.424" height="7.424"/>
    <rect class="cls-3" x="1" y="1" width="5.424" height="5.424"/>
  </g>
  <g id="rect_239" data-name="rect 239" class="cls-1" transform="translate(252.409 7.424)">
    <rect class="cls-2" width="7.424" height="7.424"/>
    <rect class="cls-3" x="1" y="1" width="5.424" height="5.424"/>
  </g>
  <g id="rect_240" data-name="rect 240" class="cls-1" transform="translate(252.409 7.424)">
    <rect class="cls-2" width="7.424" height="7.424"/>
    <rect class="cls-3" x="1" y="1" width="5.424" height="5.424"/>
  </g>
  <g id="rect_241" data-name="rect 241" class="cls-1" transform="translate(252.409 0)">
    <rect class="cls-2" width="7.424" height="7.424"/>
    <rect class="cls-3" x="1" y="1" width="5.424" height="5.424"/>
  </g>
  <g id="rect_242" data-name="rect 242" class="cls-1" transform="translate(252.409 29.695)">
    <rect class="cls-2" width="7.424" height="7.424"/>
    <rect class="cls-3" x="1" y="1" width="5.424" height="5.424"/>
  </g>
  <g id="rect_243" data-name="rect 243" class="cls-1" transform="translate(252.409 14.848)">
    <rect class="cls-2" width="7.424" height="7.424"/>
    <rect class="cls-3" x="1" y="1" width="5.424" height="5.424"/>
  </g>
  <g id="rect_244" data-name="rect 244" class="cls-1" transform="translate(252.409 7.424)">
    <rect class="cls-2" width="7.424" height="7.424"/>
    <rect class="cls-3" x="1" y="1" width="5.424" height="5.424"/>
  </g>
  <g id="rect_245" data-name="rect 245" class="cls-1" transform="translate(252.409 7.424)">
    <rect class="cls-2" width="7.424" height="7.424"/>
    <rect class="cls-3" x="1" y="1" width="5.424" height="5.424"/>
  </g>
  <g id="rect_246" data-name="rect 246" class="cls-1" transform="translate(252.409 7.424)">
    <rect class="cls-2" width="7.424" height="7.424"/>
    <rect class="cls-3" x="1" y="1" width="5.424" height="5.424"/>
  </g>
  <g id="rect_247" data-name="rect 247" class="cls-1" transform="translate(252.409 0)">
    <rect class="cls-2" width="7.424" height="7.424"/>
    <rect class="cls-3" x="1" y="1" width="5.424" height="5.424"/>
  </g>
  <g id="rect_248" data-name="rect 248" class="cls-1" transform="translate(252.409 29.695)">
    <rect class="cls-2" width="7.424" height="7.424"/>
    <rect class="cls-3" x="1" y="1" width="5.424" height="5.424"/>
  </g>
  <g id="rect_249" data-name="rect 249" class="cls-1" transform="translate(252.409 14.848)">
    <rect class="cls-2" width="7.424" height="7.424"/>
    <rect class="cls-3" x="1" y="1" width="5.424" height="5.424"/>
  </g>
  <g id="rect_250" data-name="rect 250" class="cls-1" transform="translate(252.409 7.424)">
    <rect class="cls-2" width="7.424" height="7.424"/>
    <rect class="cls-3" x="1" y="1" width="5.424" height="5.424"/>
  </g>
  <g id="rect_251" data-name="rect 251" class="cls-1" transform="translate(252.409 7.424)">
    <rect class="cls-2" width="7.424" height="7.424"/>
    <rect class="cls-3" x="1" y="1" width="5.424" height="5.424"/>
  </g>
  <g id="rect_252" data-name="rect 252" class="cls-1" transform="translate(252.409 7.424)">
    <rect class="cls-2" width="7.424" height="7.424"/>
    <rect class="cls-3" x="1" y="1" width="5.424" height="5.424"/>
  </g>
  <g id="rect_253" data-name="rect 253" class="cls-1" transform="translate(222.714 0)">
    <rect class="cls-2" width="7.424" height="7.424"/>
    <rect class="cls-3" x="1" y="1" width="5.424" height="5.424"/>
  </g>
  <g id="rect_254" data-name="rect 254" class="cls-1" transform="translate(222.714 29.695)">
    <rect class="cls-2" width="7.424" height="7.424"/>
    <rect class="cls-3" x="1" y="1" width="5.424" height="5.424"/>
  </g>
  <g id="rect_255" data-name="rect 255" class="cls-1" transform="translate(222.714 14.848)">
    <rect class="cls-2" width="7.424" height="7.424"/>
    <rect class="cls-3" x="1" y="1" width="5.424" height="5.424"/>
  </g>
  <g id="rect_256" data-name="rect 256" class="cls-1" transform="translate(222.714 7.424)">
    <rect class="cls-2" width="7.424" height="7.424"/>
    <rect class="cls-3" x="1" y="1" width="5.424" height="5.424"/>
  </g>
  <g id="rect_257" data-name="rect 257" class="cls-1" transform="translate(222.714 7.424)">
    <rect class="cls-2" width="7.424" height="7.424"/>
    <rect class="cls-3" x="1" y="1" width="5.424" height="5.424"/>
  </g>
  <g id="rect_258" data-name="rect 258" class="cls-1" transform="translate(222.714 7.424)">
    <rect class="cls-2" width="7.424" height="7.424"/>
    <rect class="cls-3" x="1" y="1" width="5.424" height="5.424"/>
  </g>
  <g id="rect_259" data-name="rect 259" class="cls-1" transform="translate(237.561 0)">
    <rect class="cls-2" width="7.424" height="7.424"/>
    <rect class="cls-3" x="1" y="1" width="5.424" height="5.424"/>
  </g>
  <g id="rect_260" data-name="rect 260" class="cls-1" transform="translate(237.561 29.695)">
    <rect class="cls-2" width="7.424" height="7.424"/>
    <rect class="cls-3" x="1" y="1" width="5.424" height="5.424"/>
  </g>
  <g id="rect_261" data-name="rect 261" class="cls-1" transform="translate(237.561 14.848)">
    <rect class="cls-2" width="7.424" height="7.424"/>
    <rect class="cls-3" x="1" y="1" width="5.424" height="5.424"/>
  </g>
  <g id="rect_262" data-name="rect 262" class="cls-1" transform="translate(237.561 7.424)">
    <rect class="cls-2" width="7.424" height="7.424"/>
    <rect class="cls-3" x="1" y="1" width="5.424" height="5.424"/>
  </g>
  <g id="rect_263" data-name="rect 263" class="cls-1" transform="translate(237.561 7.424)">
    <rect class="cls-2" width="7.424" height="7.424"/>
    <rect class="cls-3" x="1" y="1" width="5.424" height="5.424"/>
  </g>
  <g id="rect_264" data-name="rect 264" class="cls-1" transform="translate(237.561 7.424)">
    <rect class="cls-2" width="7.424" height="7.424"/>
    <rect class="cls-3" x="1" y="1" width="5.424" height="5.424"/>
  </g>
  <g id="rect_265" data-name="rect 265" class="cls-1" transform="translate(237.561 0)">
    <rect class="cls-2" width="7.424" height="7.424"/>
    <rect class="cls-3" x="1" y="1" width="5.424" height="5.424"/>
  </g>
  <g id="rect_266" data-name="rect 266" class="cls-1" transform="translate(237.561 29.695)">
    <rect class="cls-2" width="7.424" height="7.424"/>
    <rect class="cls-3" x="1" y="1" width="5.424" height="5.424"/>
  </g>
  <g id="rect_267" data-name="rect 267" class="cls-1" transform="translate(237.561 14.848)">
    <rect class="cls-2" width="7.424" height="7.424"/>
    <rect class="cls-3" x="1" y="1" width="5.424" height="5.424"/>
  </g>
  <g id="rect_268" data-name="rect 268" class="cls-1" transform="translate(237.561 7.424)">
    <rect class="cls-2" width="7.424" height="7.424"/>
    <rect class="cls-3" x="1" y="1" width="5.424" height="5.424"/>
  </g>
  <g id="rect_269" data-name="rect 269" class="cls-1" transform="translate(237.561 7.424)">
    <rect class="cls-2" width="7.424" height="7.424"/>
    <rect class="cls-3" x="1" y="1" width="5.424" height="5.424"/>
  </g>
  <g id="rect_270" data-name="rect 270" class="cls-1" transform="translate(237.561 7.424)">
    <rect class="cls-2" width="7.424" height="7.424"/>
    <rect class="cls-3" x="1" y="1" width="5.424" height="5.424"/>
  </g>
  <g id="rect_271" data-name="rect 271" class="cls-1" transform="translate(237.561 0)">
    <rect class="cls-2" width="7.424" height="7.424"/>
    <rect class="cls-3" x="1" y="1" width="5.424" height="5.424"/>
  </g>
  <g id="rect_272" data-name="rect 272" class="cls-1" transform="translate(237.561 29.695)">
    <rect class="cls-2" width="7.424" height="7.424"/>
    <rect class="cls-3" x="1" y="1" width="5.424" height="5.424"/>
  </g>
  <g id="rect_273" data-name="rect 273" class="cls-1" transform="translate(237.561 14.848)">
    <rect class="cls-2" width="7.424" height="7.424"/>
    <rect class="cls-3" x="1" y="1" width="5.424" height="5.424"/>
  </g>
  <g id="rect_274" data-name="rect 274" class="cls-1" transform="translate(237.561 7.424)">
    <rect class="cls-2" width="7.424" height="7.424"/>
    <rect class="cls-3" x="1" y="1" width="5.424" height="5.424"/>
  </g>
  <g id="rect_275" data-name="rect 275" class="cls-1" transform="translate(237.561 7.424)">
    <rect class="cls-2" width="7.424" height="7.424"/>
    <rect class="cls-3" x="1" y="1" width="5.424" height="5.424"/>
  </g>
  <g id="rect_276" data-name="rect 276" class="cls-1" transform="translate(237.561 7.424)">
    <rect class="cls-2" width="7.424" height="7.424"/>
    <rect class="cls-3" x="1" y="1" width="5.424" height="5.424"/>
  </g>
</svg>
