<svg xmlns="http://www.w3.org/2000/svg" width="483" height="177.983" viewBox="0 0 483 177.983">
  <g id="组_15" data-name="组 15" transform="translate(-81 -122.017)">
    <g id="d" transform="translate(505.785 122.017)">
      <g id="路径_9" data-name="路径 9" transform="translate(0 87.322)">
        <path d="M 43.34696960449219 86.82093048095703 C 37.63118743896484 86.78059387207031 32.08594131469727 85.64041900634766 26.86095428466797 83.43044281005859 C 21.72143173217773 81.25660705566406 17.10556602478027 78.14446258544922 13.14157676696777 74.18046569824219 C 9.177577018737793 70.21647644042969 6.065432548522949 65.60060882568359 3.891599178314209 60.46108627319336 C 1.641099095344543 55.14029693603516 0.4999991059303284 49.48794174194336 0.4999991059303284 43.66101837158203 C 0.4999991059303284 37.8340950012207 1.641099095344543 32.18173980712891 3.891599178314209 26.86095237731934 C 6.065432548522949 21.7214298248291 9.177577018737793 17.10556221008301 13.14157676696777 13.14157390594482 C 17.10556602478027 9.177574157714844 21.72143173217773 6.0654296875 26.86095428466797 3.891596078872681 C 32.07392501831055 1.686699509620667 37.60539245605469 0.5466963648796082 43.30724334716797 0.5014004707336426 C 43.37768936157227 1.036111116409302 43.44490432739258 2.44745659828186 43.44708633422852 5.872851848602295 C 43.44915390014648 9.12471866607666 43.39629745483398 13.53388500213623 43.33509826660156 18.63926315307617 C 43.24835586547852 25.87537384033203 43.14038848876953 34.88096237182617 43.1610221862793 43.66219711303711 C 43.1796875 51.60051727294922 43.29423141479492 59.43449783325195 43.39530944824219 66.34627532958984 C 43.47900009155273 72.06939697265625 43.55127716064453 77.01206207275391 43.54896545410156 80.68167114257813 C 43.54634857177734 84.84222412109375 43.43752670288086 86.31618499755859 43.34696960449219 86.82093048095703 Z" stroke="none"/>
        <path d="M 42.8519172668457 1.007431030273438 C 37.37802124023438 1.108139038085938 32.06804656982422 2.232070922851563 27.05572891235352 4.352104187011719 C 21.97581100463867 6.500724792480469 17.41336441040039 9.576873779296875 13.4951286315918 13.49512481689453 C 9.576881408691406 17.41336059570313 6.500728607177734 21.97580718994141 4.352104187011719 27.05572509765625 C 2.127811431884766 32.31454849243164 1 37.90137100219727 1 43.66101837158203 C 1 49.420654296875 2.127811431884766 55.00747680664063 4.352104187011719 60.26630020141602 C 6.500728607177734 65.34622192382813 9.576881408691406 69.90866088867188 13.4951286315918 73.82691192626953 C 17.41336441040039 77.74514770507813 21.97581100463867 80.82130432128906 27.05572891235352 82.96992492675781 C 32.08505630493164 85.09715270996094 37.41466522216797 86.22151184082031 42.90825271606445 86.31558990478516 C 42.97925567626953 85.57695770263672 43.04967880249023 83.96115875244141 43.04901123046875 80.45750427246094 C 43.0483283996582 76.81436157226563 42.97743606567383 71.96677398681641 42.89536285400391 66.35374450683594 C 42.79426956176758 59.44049072265625 42.67969512939453 51.60483169555664 42.6610221862793 43.66337203979492 C 42.64038848876953 34.87852478027344 42.74836349487305 25.87091064453125 42.83514022827148 18.63317108154297 C 42.89521026611328 13.62140655517578 42.94710540771484 9.2930908203125 42.94715118408203 6.063064575195313 C 42.94719314575195 3.151741027832031 42.90110397338867 1.713348388671875 42.8519172668457 1.007431030273438 M 43.6610221862793 -7.62939453125e-06 C 44.32952880859375 -7.62939453125e-06 43.61014175415039 22.00392150878906 43.6610221862793 43.66101837158203 C 43.71270751953125 65.65078735351563 44.50757598876953 87.32202911376953 43.6610221862793 87.32202911376953 C 19.54770469665527 87.32202911376953 0 67.77432250976563 0 43.66101837158203 C 0 19.54769897460938 19.54770469665527 -7.62939453125e-06 43.6610221862793 -7.62939453125e-06 Z" stroke="none" fill="#707070"/>
      </g>
      <g id="椭圆_22" data-name="椭圆 22" transform="translate(29.107 87.322)" stroke="#000" stroke-width="1">
        <ellipse cx="14.554" cy="14.554" rx="14.554" ry="14.554" stroke="none"/>
        <ellipse cx="14.554" cy="14.554" rx="14.054" ry="14.054" fill="none"/>
      </g>
      <g id="椭圆_23" data-name="椭圆 23" transform="translate(29.107 145.537)" stroke="#000" stroke-width="1">
        <ellipse cx="14.554" cy="14.554" rx="14.554" ry="14.554" stroke="none"/>
        <ellipse cx="14.554" cy="14.554" rx="14.054" ry="14.054" fill="none"/>
      </g>
      <g id="椭圆_24" data-name="椭圆 24" transform="translate(29.107 116.429)" fill="#fff" stroke="#fff" stroke-width="1">
        <ellipse cx="14.554" cy="14.554" rx="14.554" ry="14.554" stroke="none"/>
        <ellipse cx="14.554" cy="14.554" rx="14.054" ry="14.054" fill="none"/>
      </g>
      <g id="路径_10" data-name="路径 10" transform="translate(0 87.322)">
        <path d="M 43.34696960449219 86.82093048095703 C 37.63118743896484 86.78059387207031 32.08594131469727 85.64041900634766 26.86095428466797 83.43044281005859 C 21.72143173217773 81.25660705566406 17.10556602478027 78.14446258544922 13.14157676696777 74.18046569824219 C 9.177577018737793 70.21647644042969 6.065432548522949 65.60060882568359 3.891599178314209 60.46108627319336 C 1.641099095344543 55.14029693603516 0.4999991059303284 49.48794174194336 0.4999991059303284 43.66101837158203 C 0.4999991059303284 37.8340950012207 1.641099095344543 32.18173980712891 3.891599178314209 26.86095237731934 C 6.065432548522949 21.7214298248291 9.177577018737793 17.10556221008301 13.14157676696777 13.14157390594482 C 17.10556602478027 9.177574157714844 21.72143173217773 6.0654296875 26.86095428466797 3.891596078872681 C 32.07392501831055 1.686699509620667 37.60539245605469 0.5466963648796082 43.30724334716797 0.5014004707336426 C 43.37768936157227 1.036111116409302 43.44490432739258 2.44745659828186 43.44708633422852 5.872851848602295 C 43.44915390014648 9.12471866607666 43.39629745483398 13.53388500213623 43.33509826660156 18.63926315307617 C 43.24835586547852 25.87537384033203 43.14038848876953 34.88096237182617 43.1610221862793 43.66219711303711 C 43.1796875 51.60051727294922 43.29423141479492 59.43449783325195 43.39530944824219 66.34627532958984 C 43.47900009155273 72.06939697265625 43.55127716064453 77.01206207275391 43.54896545410156 80.68167114257813 C 43.54634857177734 84.84222412109375 43.43752670288086 86.31618499755859 43.34696960449219 86.82093048095703 Z" stroke="none"/>
        <path d="M 42.8519172668457 1.007431030273438 C 37.37802124023438 1.108139038085938 32.06804656982422 2.232070922851563 27.05572891235352 4.352104187011719 C 21.97581100463867 6.500724792480469 17.41336441040039 9.576873779296875 13.4951286315918 13.49512481689453 C 9.576881408691406 17.41336059570313 6.500728607177734 21.97580718994141 4.352104187011719 27.05572509765625 C 2.127811431884766 32.31454849243164 1 37.90137100219727 1 43.66101837158203 C 1 49.420654296875 2.127811431884766 55.00747680664063 4.352104187011719 60.26630020141602 C 6.500728607177734 65.34622192382813 9.576881408691406 69.90866088867188 13.4951286315918 73.82691192626953 C 17.41336441040039 77.74514770507813 21.97581100463867 80.82130432128906 27.05572891235352 82.96992492675781 C 32.08505630493164 85.09715270996094 37.41466522216797 86.22151184082031 42.90825271606445 86.31558990478516 C 42.97925567626953 85.57695770263672 43.04967880249023 83.96115875244141 43.04901123046875 80.45750427246094 C 43.0483283996582 76.81436157226563 42.97743606567383 71.96677398681641 42.89536285400391 66.35374450683594 C 42.79426956176758 59.44049072265625 42.67969512939453 51.60483169555664 42.6610221862793 43.66337203979492 C 42.64038848876953 34.87852478027344 42.74836349487305 25.87091064453125 42.83514022827148 18.63317108154297 C 42.89521026611328 13.62140655517578 42.94710540771484 9.2930908203125 42.94715118408203 6.063064575195313 C 42.94719314575195 3.151741027832031 42.90110397338867 1.713348388671875 42.8519172668457 1.007431030273438 M 43.6610221862793 -7.62939453125e-06 C 44.32952880859375 -7.62939453125e-06 43.61014175415039 22.00392150878906 43.6610221862793 43.66101837158203 C 43.71270751953125 65.65078735351563 44.50757598876953 87.32202911376953 43.6610221862793 87.32202911376953 C 19.54770469665527 87.32202911376953 0 67.77432250976563 0 43.66101837158203 C 0 19.54769897460938 19.54770469665527 -7.62939453125e-06 43.6610221862793 -7.62939453125e-06 Z" stroke="none" fill="#707070"/>
      </g>
      <g id="椭圆_25" data-name="椭圆 25" transform="translate(29.107 87.322)" stroke="#000" stroke-width="1">
        <ellipse cx="14.554" cy="14.554" rx="14.554" ry="14.554" stroke="none"/>
        <ellipse cx="14.554" cy="14.554" rx="14.054" ry="14.054" fill="none"/>
      </g>
      <g id="椭圆_26" data-name="椭圆 26" transform="translate(29.107 145.537)" stroke="#000" stroke-width="1">
        <ellipse cx="14.554" cy="14.554" rx="14.554" ry="14.554" stroke="none"/>
        <ellipse cx="14.554" cy="14.554" rx="14.054" ry="14.054" fill="none"/>
      </g>
      <g id="椭圆_27" data-name="椭圆 27" transform="translate(29.107 116.429)" fill="#fff" stroke="#fff" stroke-width="1">
        <ellipse cx="14.554" cy="14.554" rx="14.554" ry="14.554" stroke="none"/>
        <ellipse cx="14.554" cy="14.554" rx="14.054" ry="14.054" fill="none"/>
      </g>
      <g id="矩形_12" data-name="矩形 12" transform="translate(29.107 16.373)" stroke="#000" stroke-width="1">
        <rect width="29.107" height="83.684" stroke="none"/>
        <rect x="0.5" y="0.5" width="28.107" height="82.684" fill="none"/>
      </g>
      <g id="椭圆_28" data-name="椭圆 28" transform="translate(29.107)" stroke="#000" stroke-width="1">
        <ellipse cx="14.554" cy="14.554" rx="14.554" ry="14.554" stroke="none"/>
        <ellipse cx="14.554" cy="14.554" rx="14.054" ry="14.054" fill="none"/>
      </g>
      <g id="矩形_17" data-name="矩形 17" transform="translate(29.107 145.537)" stroke="#000" stroke-width="1">
        <rect width="29.107" height="29.107" rx="12" stroke="none"/>
        <rect x="0.5" y="0.5" width="28.107" height="28.107" rx="11.5" fill="none"/>
      </g>
    </g>
    <g id="l" transform="translate(462.124 122.017)">
      <g id="矩形_10" data-name="矩形 10" transform="translate(0 14.554)" stroke="#000" stroke-width="1">
        <rect width="29.107" height="145.537" stroke="none"/>
        <rect x="0.5" y="0.5" width="28.107" height="144.537" fill="none"/>
      </g>
      <g id="椭圆_16" data-name="椭圆 16" transform="translate(0)" stroke="#000" stroke-width="1">
        <ellipse cx="14.554" cy="14.554" rx="14.554" ry="14.554" stroke="none"/>
        <ellipse cx="14.554" cy="14.554" rx="14.054" ry="14.054" fill="none"/>
      </g>
      <g id="椭圆_17" data-name="椭圆 17" transform="translate(0 145.537)" stroke="#000" stroke-width="1">
        <ellipse cx="14.554" cy="14.554" rx="14.554" ry="14.554" stroke="none"/>
        <ellipse cx="14.554" cy="14.554" rx="14.054" ry="14.054" fill="none"/>
      </g>
      <g id="矩形_16" data-name="矩形 16" transform="translate(0 145.537)" stroke="#000" stroke-width="1">
        <rect width="29.107" height="29.107" rx="12" stroke="none"/>
        <rect x="0.5" y="0.5" width="28.107" height="28.107" rx="11.5" fill="none"/>
      </g>
    </g>
    <g id="o" transform="translate(360.249 209.339)">
      <g id="椭圆_7" data-name="椭圆 7" transform="translate(0)" stroke="#000" stroke-width="1">
        <ellipse cx="43.661" cy="43.661" rx="43.661" ry="43.661" stroke="none"/>
        <ellipse cx="43.661" cy="43.661" rx="43.161" ry="43.161" fill="none"/>
      </g>
      <g id="椭圆_15" data-name="椭圆 15" transform="translate(29.107 29.107)" fill="#fff" stroke="#000" stroke-width="1">
        <ellipse cx="14.554" cy="14.554" rx="14.554" ry="14.554" stroke="none"/>
        <ellipse cx="14.554" cy="14.554" rx="14.054" ry="14.054" fill="none"/>
      </g>
    </g>
    <g id="b" transform="translate(284.751 122.017)">
      <g id="矩形_9" data-name="矩形 9" transform="translate(0 14.554)" stroke="#000" stroke-width="1">
        <rect width="29.107" height="83.684" stroke="none"/>
        <rect x="0.5" y="0.5" width="28.107" height="82.684" fill="none"/>
      </g>
      <g id="椭圆_8" data-name="椭圆 8" transform="translate(0)" stroke="#000" stroke-width="1">
        <ellipse cx="14.554" cy="14.554" rx="14.554" ry="14.554" stroke="none"/>
        <ellipse cx="14.554" cy="14.554" rx="14.054" ry="14.054" fill="none"/>
      </g>
      <g id="路径_6" data-name="路径 6" transform="translate(61.331 174.644) rotate(180)">
        <path d="M 43.34696960449219 86.82093048095703 C 37.63118743896484 86.78059387207031 32.08594131469727 85.64041900634766 26.86095428466797 83.43044281005859 C 21.72143173217773 81.25660705566406 17.10556602478027 78.14446258544922 13.14157676696777 74.18046569824219 C 9.177577018737793 70.21647644042969 6.065432548522949 65.60060882568359 3.891599178314209 60.46108627319336 C 1.641099095344543 55.14029693603516 0.4999991059303284 49.48794174194336 0.4999991059303284 43.66101837158203 C 0.4999991059303284 37.8340950012207 1.641099095344543 32.18173980712891 3.891599178314209 26.86095237731934 C 6.065432548522949 21.7214298248291 9.177577018737793 17.10556221008301 13.14157676696777 13.14157390594482 C 17.10556602478027 9.177574157714844 21.72143173217773 6.0654296875 26.86095428466797 3.891596078872681 C 32.07392501831055 1.686699509620667 37.60539245605469 0.5466963648796082 43.30724334716797 0.5014004707336426 C 43.37768936157227 1.036111116409302 43.44490432739258 2.44745659828186 43.44708633422852 5.872851848602295 C 43.44915390014648 9.12471866607666 43.39629745483398 13.53388500213623 43.33509826660156 18.63926315307617 C 43.24835586547852 25.87537384033203 43.14038848876953 34.88096237182617 43.1610221862793 43.66219711303711 C 43.1796875 51.60051727294922 43.29423141479492 59.43449783325195 43.39530944824219 66.34627532958984 C 43.47900009155273 72.06939697265625 43.55127716064453 77.01206207275391 43.54896545410156 80.68167114257813 C 43.54634857177734 84.84222412109375 43.43752670288086 86.31618499755859 43.34696960449219 86.82093048095703 Z" stroke="none"/>
        <path d="M 42.8519172668457 1.007431030273438 C 37.37802124023438 1.108139038085938 32.06804656982422 2.232070922851563 27.05572891235352 4.352104187011719 C 21.97581100463867 6.500724792480469 17.41336441040039 9.576873779296875 13.4951286315918 13.49512481689453 C 9.576881408691406 17.41336059570313 6.500728607177734 21.97580718994141 4.352104187011719 27.05572509765625 C 2.127811431884766 32.31454849243164 1 37.90137100219727 1 43.66101837158203 C 1 49.420654296875 2.127811431884766 55.00747680664063 4.352104187011719 60.26630020141602 C 6.500728607177734 65.34622192382813 9.576881408691406 69.90866088867188 13.4951286315918 73.82691192626953 C 17.41336441040039 77.74514770507813 21.97581100463867 80.82130432128906 27.05572891235352 82.96992492675781 C 32.08505630493164 85.09715270996094 37.41466522216797 86.22151184082031 42.90825271606445 86.31558990478516 C 42.97925567626953 85.57695770263672 43.04967880249023 83.96115875244141 43.04901123046875 80.45750427246094 C 43.0483283996582 76.81436157226563 42.97743606567383 71.96677398681641 42.89536285400391 66.35374450683594 C 42.79426956176758 59.44049072265625 42.67969512939453 51.60483169555664 42.6610221862793 43.66337203979492 C 42.64038848876953 34.87852478027344 42.74836349487305 25.87091064453125 42.83514022827148 18.63317108154297 C 42.89521026611328 13.62140655517578 42.94710540771484 9.2930908203125 42.94715118408203 6.063064575195313 C 42.94719314575195 3.151741027832031 42.90110397338867 1.713348388671875 42.8519172668457 1.007431030273438 M 43.6610221862793 -7.62939453125e-06 C 44.32952880859375 -7.62939453125e-06 43.61014175415039 22.00392150878906 43.6610221862793 43.66101837158203 C 43.71270751953125 65.65078735351563 44.50757598876953 87.32202911376953 43.6610221862793 87.32202911376953 C 19.54770469665527 87.32202911376953 0 67.77432250976563 0 43.66101837158203 C 0 19.54769897460938 19.54770469665527 -7.62939453125e-06 43.6610221862793 -7.62939453125e-06 Z" stroke="none"/>
      </g>
      <g id="椭圆_9" data-name="椭圆 9" transform="translate(29.107 174.644) rotate(180)" stroke="#000" stroke-width="1">
        <ellipse cx="14.554" cy="14.554" rx="14.554" ry="14.554" stroke="none"/>
        <ellipse cx="14.554" cy="14.554" rx="14.054" ry="14.054" fill="none"/>
      </g>
      <g id="椭圆_10" data-name="椭圆 10" transform="translate(29.107 116.429) rotate(180)" stroke="#000" stroke-width="1">
        <ellipse cx="14.554" cy="14.554" rx="14.554" ry="14.554" stroke="none"/>
        <ellipse cx="14.554" cy="14.554" rx="14.054" ry="14.054" fill="none"/>
      </g>
      <g id="椭圆_11" data-name="椭圆 11" transform="translate(34.565 145.537) rotate(180)" fill="#fff" stroke="#fff" stroke-width="1">
        <ellipse cx="14.554" cy="14.554" rx="14.554" ry="14.554" stroke="none"/>
        <ellipse cx="14.554" cy="14.554" rx="14.054" ry="14.054" fill="none"/>
      </g>
      <g id="矩形_11" data-name="矩形 11" transform="translate(0 14.554)" stroke="#000" stroke-width="1">
        <rect width="29.107" height="83.684" stroke="none"/>
        <rect x="0.5" y="0.5" width="28.107" height="82.684" fill="none"/>
      </g>
      <g id="椭圆_18" data-name="椭圆 18" transform="translate(0)" stroke="#000" stroke-width="1">
        <ellipse cx="14.554" cy="14.554" rx="14.554" ry="14.554" stroke="none"/>
        <ellipse cx="14.554" cy="14.554" rx="14.054" ry="14.054" fill="none"/>
      </g>
      <g id="路径_8" data-name="路径 8" transform="translate(61.331 174.644) rotate(180)">
        <path d="M 43.34696960449219 86.82093048095703 C 37.63118743896484 86.78059387207031 32.08594131469727 85.64041900634766 26.86095428466797 83.43044281005859 C 21.72143173217773 81.25660705566406 17.10556602478027 78.14446258544922 13.14157676696777 74.18046569824219 C 9.177577018737793 70.21647644042969 6.065432548522949 65.60060882568359 3.891599178314209 60.46108627319336 C 1.641099095344543 55.14029693603516 0.4999991059303284 49.48794174194336 0.4999991059303284 43.66101837158203 C 0.4999991059303284 37.8340950012207 1.641099095344543 32.18173980712891 3.891599178314209 26.86095237731934 C 6.065432548522949 21.7214298248291 9.177577018737793 17.10556221008301 13.14157676696777 13.14157390594482 C 17.10556602478027 9.177574157714844 21.72143173217773 6.0654296875 26.86095428466797 3.891596078872681 C 32.07392501831055 1.686699509620667 37.60539245605469 0.5466963648796082 43.30724334716797 0.5014004707336426 C 43.37768936157227 1.036111116409302 43.44490432739258 2.44745659828186 43.44708633422852 5.872851848602295 C 43.44915390014648 9.12471866607666 43.39629745483398 13.53388500213623 43.33509826660156 18.63926315307617 C 43.24835586547852 25.87537384033203 43.14038848876953 34.88096237182617 43.1610221862793 43.66219711303711 C 43.1796875 51.60051727294922 43.29423141479492 59.43449783325195 43.39530944824219 66.34627532958984 C 43.47900009155273 72.06939697265625 43.55127716064453 77.01206207275391 43.54896545410156 80.68167114257813 C 43.54634857177734 84.84222412109375 43.43752670288086 86.31618499755859 43.34696960449219 86.82093048095703 Z" stroke="none"/>
        <path d="M 42.8519172668457 1.007431030273438 C 37.37802124023438 1.108139038085938 32.06804656982422 2.232070922851563 27.05572891235352 4.352104187011719 C 21.97581100463867 6.500724792480469 17.41336441040039 9.576873779296875 13.4951286315918 13.49512481689453 C 9.576881408691406 17.41336059570313 6.500728607177734 21.97580718994141 4.352104187011719 27.05572509765625 C 2.127811431884766 32.31454849243164 1 37.90137100219727 1 43.66101837158203 C 1 49.420654296875 2.127811431884766 55.00747680664063 4.352104187011719 60.26630020141602 C 6.500728607177734 65.34622192382813 9.576881408691406 69.90866088867188 13.4951286315918 73.82691192626953 C 17.41336441040039 77.74514770507813 21.97581100463867 80.82130432128906 27.05572891235352 82.96992492675781 C 32.08505630493164 85.09715270996094 37.41466522216797 86.22151184082031 42.90825271606445 86.31558990478516 C 42.97925567626953 85.57695770263672 43.04967880249023 83.96115875244141 43.04901123046875 80.45750427246094 C 43.0483283996582 76.81436157226563 42.97743606567383 71.96677398681641 42.89536285400391 66.35374450683594 C 42.79426956176758 59.44049072265625 42.67969512939453 51.60483169555664 42.6610221862793 43.66337203979492 C 42.64038848876953 34.87852478027344 42.74836349487305 25.87091064453125 42.83514022827148 18.63317108154297 C 42.89521026611328 13.62140655517578 42.94710540771484 9.2930908203125 42.94715118408203 6.063064575195313 C 42.94719314575195 3.151741027832031 42.90110397338867 1.713348388671875 42.8519172668457 1.007431030273438 M 43.6610221862793 -7.62939453125e-06 C 44.32952880859375 -7.62939453125e-06 43.61014175415039 22.00392150878906 43.6610221862793 43.66101837158203 C 43.71270751953125 65.65078735351563 44.50757598876953 87.32202911376953 43.6610221862793 87.32202911376953 C 19.54770469665527 87.32202911376953 0 67.77432250976563 0 43.66101837158203 C 0 19.54769897460938 19.54770469665527 -7.62939453125e-06 43.6610221862793 -7.62939453125e-06 Z" stroke="none"/>
      </g>
      <g id="椭圆_19" data-name="椭圆 19" transform="translate(29.107 174.644) rotate(180)" stroke="#000" stroke-width="1">
        <ellipse cx="14.554" cy="14.554" rx="14.554" ry="14.554" stroke="none"/>
        <ellipse cx="14.554" cy="14.554" rx="14.054" ry="14.054" fill="none"/>
      </g>
      <g id="椭圆_20" data-name="椭圆 20" transform="translate(29.107 116.429) rotate(180)" stroke="#000" stroke-width="1">
        <ellipse cx="14.554" cy="14.554" rx="14.554" ry="14.554" stroke="none"/>
        <ellipse cx="14.554" cy="14.554" rx="14.054" ry="14.054" fill="none"/>
      </g>
      <g id="椭圆_21" data-name="椭圆 21" transform="translate(34.565 145.537) rotate(180)" fill="#fff" stroke="#fff" stroke-width="1">
        <ellipse cx="14.554" cy="14.554" rx="14.554" ry="14.554" stroke="none"/>
        <ellipse cx="14.554" cy="14.554" rx="14.054" ry="14.054" fill="none"/>
      </g>
      <g id="矩形_14" data-name="矩形 14" transform="translate(0 145.537)" stroke="#000" stroke-width="1">
        <rect width="29.107" height="29.107" rx="10" stroke="none"/>
        <rect x="0.5" y="0.5" width="28.107" height="28.107" rx="9.5" fill="none"/>
      </g>
      <g id="矩形_19" data-name="矩形 19" transform="translate(0 145.537)" stroke="#000" stroke-width="1">
        <rect width="29.107" height="29.107" rx="12" stroke="none"/>
        <rect x="0.5" y="0.5" width="28.107" height="28.107" rx="11.5" fill="none"/>
      </g>
    </g>
    <g id="i" transform="translate(241.09 151.124)">
      <g id="矩形_8" data-name="矩形 8" transform="translate(0 72.768)" stroke="#000" stroke-width="1">
        <rect width="29.107" height="58.215" stroke="none"/>
        <rect x="0.5" y="0.5" width="28.107" height="57.215" fill="none"/>
      </g>
      <g id="椭圆_5" data-name="椭圆 5" transform="translate(0 58.215)" stroke="#000" stroke-width="1">
        <ellipse cx="14.554" cy="14.554" rx="14.554" ry="14.554" stroke="none"/>
        <ellipse cx="14.554" cy="14.554" rx="14.054" ry="14.054" fill="none"/>
      </g>
      <g id="椭圆_6" data-name="椭圆 6" stroke="#000" stroke-width="1">
        <ellipse cx="14.554" cy="14.554" rx="14.554" ry="14.554" stroke="none"/>
        <ellipse cx="14.554" cy="14.554" rx="14.054" ry="14.054" fill="none"/>
      </g>
      <g id="矩形_20" data-name="矩形 20" transform="translate(0 116.429)" stroke="#000" stroke-width="1">
        <rect width="29.107" height="29.107" rx="10" stroke="none"/>
        <rect x="0.5" y="0.5" width="28.107" height="28.107" rx="9.5" fill="none"/>
      </g>
    </g>
    <g id="c" transform="translate(168.322 209.339)">
      <g id="路径_5" data-name="路径 5" transform="translate(0)">
        <path d="M 43.34696960449219 86.82093048095703 C 37.63118743896484 86.78059387207031 32.08594131469727 85.64041900634766 26.86095428466797 83.43044281005859 C 21.72143173217773 81.25660705566406 17.10556602478027 78.14446258544922 13.14157676696777 74.18046569824219 C 9.177577018737793 70.21647644042969 6.065432548522949 65.60060882568359 3.891599178314209 60.46108627319336 C 1.641099095344543 55.14029693603516 0.4999991059303284 49.48794174194336 0.4999991059303284 43.66101837158203 C 0.4999991059303284 37.8340950012207 1.641099095344543 32.18173980712891 3.891599178314209 26.86095237731934 C 6.065432548522949 21.7214298248291 9.177577018737793 17.10556221008301 13.14157676696777 13.14157390594482 C 17.10556602478027 9.177574157714844 21.72143173217773 6.0654296875 26.86095428466797 3.891596078872681 C 32.07392501831055 1.686699509620667 37.60539245605469 0.5466963648796082 43.30724334716797 0.5014004707336426 C 43.37768936157227 1.036111116409302 43.44490432739258 2.44745659828186 43.44708633422852 5.872851848602295 C 43.44915390014648 9.12471866607666 43.39629745483398 13.53388500213623 43.33509826660156 18.63926315307617 C 43.24835586547852 25.87537384033203 43.14038848876953 34.88096237182617 43.1610221862793 43.66219711303711 C 43.1796875 51.60051727294922 43.29423141479492 59.43449783325195 43.39530944824219 66.34627532958984 C 43.47900009155273 72.06939697265625 43.55127716064453 77.01206207275391 43.54896545410156 80.68167114257813 C 43.54634857177734 84.84222412109375 43.43752670288086 86.31618499755859 43.34696960449219 86.82093048095703 Z" stroke="none"/>
        <path d="M 42.8519172668457 1.007431030273438 C 37.37802124023438 1.108139038085938 32.06804656982422 2.232070922851563 27.05572891235352 4.352104187011719 C 21.97581100463867 6.500724792480469 17.41336441040039 9.576873779296875 13.4951286315918 13.49512481689453 C 9.576881408691406 17.41336059570313 6.500728607177734 21.97580718994141 4.352104187011719 27.05572509765625 C 2.127811431884766 32.31454849243164 1 37.90137100219727 1 43.66101837158203 C 1 49.420654296875 2.127811431884766 55.00747680664063 4.352104187011719 60.26630020141602 C 6.500728607177734 65.34622192382813 9.576881408691406 69.90866088867188 13.4951286315918 73.82691192626953 C 17.41336441040039 77.74514770507813 21.97581100463867 80.82130432128906 27.05572891235352 82.96992492675781 C 32.08505630493164 85.09715270996094 37.41466522216797 86.22151184082031 42.90825271606445 86.31558990478516 C 42.97925567626953 85.57695770263672 43.04967880249023 83.96115875244141 43.04901123046875 80.45750427246094 C 43.0483283996582 76.81436157226563 42.97743606567383 71.96677398681641 42.89536285400391 66.35374450683594 C 42.79426956176758 59.44049072265625 42.67969512939453 51.60483169555664 42.6610221862793 43.66337203979492 C 42.64038848876953 34.87852478027344 42.74836349487305 25.87091064453125 42.83514022827148 18.63317108154297 C 42.89521026611328 13.62140655517578 42.94710540771484 9.2930908203125 42.94715118408203 6.063064575195313 C 42.94719314575195 3.151741027832031 42.90110397338867 1.713348388671875 42.8519172668457 1.007431030273438 M 43.6610221862793 -7.62939453125e-06 C 44.32952880859375 -7.62939453125e-06 43.61014175415039 22.00392150878906 43.6610221862793 43.66101837158203 C 43.71270751953125 65.65078735351563 44.50757598876953 87.32202911376953 43.6610221862793 87.32202911376953 C 19.54770469665527 87.32202911376953 0 67.77432250976563 0 43.66101837158203 C 0 19.54769897460938 19.54770469665527 -7.62939453125e-06 43.6610221862793 -7.62939453125e-06 Z" stroke="none" fill="#707070"/>
      </g>
      <g id="椭圆_1" data-name="椭圆 1" transform="translate(29.107)" stroke="#000" stroke-width="1">
        <ellipse cx="14.554" cy="14.554" rx="14.554" ry="14.554" stroke="none"/>
        <ellipse cx="14.554" cy="14.554" rx="14.054" ry="14.054" fill="none"/>
      </g>
      <g id="椭圆_2" data-name="椭圆 2" transform="translate(29.107 58.215)" stroke="#000" stroke-width="1">
        <ellipse cx="14.554" cy="14.554" rx="14.554" ry="14.554" stroke="none"/>
        <ellipse cx="14.554" cy="14.554" rx="14.054" ry="14.054" fill="none"/>
      </g>
      <g id="椭圆_3" data-name="椭圆 3" transform="translate(29.107 29.107)" fill="#fff" stroke="#fff" stroke-width="1">
        <ellipse cx="14.554" cy="14.554" rx="14.554" ry="14.554" stroke="none"/>
        <ellipse cx="14.554" cy="14.554" rx="14.054" ry="14.054" fill="none"/>
      </g>
      <g id="路径_7" data-name="路径 7" transform="translate(0)">
        <path d="M 43.34696960449219 86.82093048095703 C 37.63118743896484 86.78059387207031 32.08594131469727 85.64041900634766 26.86095428466797 83.43044281005859 C 21.72143173217773 81.25660705566406 17.10556602478027 78.14446258544922 13.14157676696777 74.18046569824219 C 9.177577018737793 70.21647644042969 6.065432548522949 65.60060882568359 3.891599178314209 60.46108627319336 C 1.641099095344543 55.14029693603516 0.4999991059303284 49.48794174194336 0.4999991059303284 43.66101837158203 C 0.4999991059303284 37.8340950012207 1.641099095344543 32.18173980712891 3.891599178314209 26.86095237731934 C 6.065432548522949 21.7214298248291 9.177577018737793 17.10556221008301 13.14157676696777 13.14157390594482 C 17.10556602478027 9.177574157714844 21.72143173217773 6.0654296875 26.86095428466797 3.891596078872681 C 32.07392501831055 1.686699509620667 37.60539245605469 0.5466963648796082 43.30724334716797 0.5014004707336426 C 43.37768936157227 1.036111116409302 43.44490432739258 2.44745659828186 43.44708633422852 5.872851848602295 C 43.44915390014648 9.12471866607666 43.39629745483398 13.53388500213623 43.33509826660156 18.63926315307617 C 43.24835586547852 25.87537384033203 43.14038848876953 34.88096237182617 43.1610221862793 43.66219711303711 C 43.1796875 51.60051727294922 43.29423141479492 59.43449783325195 43.39530944824219 66.34627532958984 C 43.47900009155273 72.06939697265625 43.55127716064453 77.01206207275391 43.54896545410156 80.68167114257813 C 43.54634857177734 84.84222412109375 43.43752670288086 86.31618499755859 43.34696960449219 86.82093048095703 Z" stroke="none"/>
        <path d="M 42.8519172668457 1.007431030273438 C 37.37802124023438 1.108139038085938 32.06804656982422 2.232070922851563 27.05572891235352 4.352104187011719 C 21.97581100463867 6.500724792480469 17.41336441040039 9.576873779296875 13.4951286315918 13.49512481689453 C 9.576881408691406 17.41336059570313 6.500728607177734 21.97580718994141 4.352104187011719 27.05572509765625 C 2.127811431884766 32.31454849243164 1 37.90137100219727 1 43.66101837158203 C 1 49.420654296875 2.127811431884766 55.00747680664063 4.352104187011719 60.26630020141602 C 6.500728607177734 65.34622192382813 9.576881408691406 69.90866088867188 13.4951286315918 73.82691192626953 C 17.41336441040039 77.74514770507813 21.97581100463867 80.82130432128906 27.05572891235352 82.96992492675781 C 32.08505630493164 85.09715270996094 37.41466522216797 86.22151184082031 42.90825271606445 86.31558990478516 C 42.97925567626953 85.57695770263672 43.04967880249023 83.96115875244141 43.04901123046875 80.45750427246094 C 43.0483283996582 76.81436157226563 42.97743606567383 71.96677398681641 42.89536285400391 66.35374450683594 C 42.79426956176758 59.44049072265625 42.67969512939453 51.60483169555664 42.6610221862793 43.66337203979492 C 42.64038848876953 34.87852478027344 42.74836349487305 25.87091064453125 42.83514022827148 18.63317108154297 C 42.89521026611328 13.62140655517578 42.94710540771484 9.2930908203125 42.94715118408203 6.063064575195313 C 42.94719314575195 3.151741027832031 42.90110397338867 1.713348388671875 42.8519172668457 1.007431030273438 M 43.6610221862793 -7.62939453125e-06 C 44.32952880859375 -7.62939453125e-06 43.61014175415039 22.00392150878906 43.6610221862793 43.66101837158203 C 43.71270751953125 65.65078735351563 44.50757598876953 87.32202911376953 43.6610221862793 87.32202911376953 C 19.54770469665527 87.32202911376953 0 67.77432250976563 0 43.66101837158203 C 0 19.54769897460938 19.54770469665527 -7.62939453125e-06 43.6610221862793 -7.62939453125e-06 Z" stroke="none"/>
      </g>
      <g id="椭圆_12" data-name="椭圆 12" transform="translate(29.107)" stroke="#000" stroke-width="1">
        <ellipse cx="14.554" cy="14.554" rx="14.554" ry="14.554" stroke="none"/>
        <ellipse cx="14.554" cy="14.554" rx="14.054" ry="14.054" fill="none"/>
      </g>
      <g id="椭圆_13" data-name="椭圆 13" transform="translate(29.107 58.215)" stroke="#000" stroke-width="1">
        <ellipse cx="14.554" cy="14.554" rx="14.554" ry="14.554" stroke="none"/>
        <ellipse cx="14.554" cy="14.554" rx="14.054" ry="14.054" fill="none"/>
      </g>
      <g id="椭圆_14" data-name="椭圆 14" transform="translate(29.107 29.107)" fill="#fff" stroke="#fff" stroke-width="1">
        <ellipse cx="14.554" cy="14.554" rx="14.554" ry="14.554" stroke="none"/>
        <ellipse cx="14.554" cy="14.554" rx="14.054" ry="14.054" fill="none"/>
      </g>
    </g>
    <g id="K" transform="translate(81 122.017)">
      <g id="矩形_21" data-name="矩形 21" transform="translate(30.937 95.075) rotate(-21)" stroke="#000" stroke-width="1">
        <rect width="29.107" height="78.226" stroke="none"/>
        <rect x="0.5" y="0.5" width="28.107" height="77.226" fill="none"/>
      </g>
      <g id="矩形_7" data-name="矩形 7" transform="translate(0)" stroke="#000" stroke-width="1">
        <rect width="29.107" height="174.644" rx="14.554" stroke="none"/>
        <rect x="0.5" y="0.5" width="28.107" height="173.644" rx="14.054" fill="none"/>
      </g>
      <path id="路径_1" data-name="路径 1" d="M73.345,352" transform="translate(-35.737 -264.678)" fill="none" stroke="#707070" stroke-width="1"/>
      <path id="路径_2" data-name="路径 2" d="M64,352" transform="translate(-34.893 -264.678)" fill="none" stroke="#707070" stroke-width="1"/>
      <g id="路径_4" data-name="路径 4" transform="translate(29.107 58.215)" fill="#ffe505">
        <path d="M 29.10734558105469 57.71468353271484 C 25.24515533447266 57.71468353271484 21.49876594543457 56.9583854675293 17.97223472595215 55.4667854309082 C 14.56574535369873 54.02596282958984 11.50631523132324 51.96319198608398 8.878905296325684 49.33578491210938 C 6.251495361328125 46.7083740234375 4.188725471496582 43.64894485473633 2.747905492782593 40.24245452880859 C 1.256305575370789 36.71592330932617 0.5000056028366089 32.96953201293945 0.5000056028366089 29.10734367370605 C 0.5000056028366089 25.24515342712402 1.256305575370789 21.49876403808594 2.747905492782593 17.97223281860352 C 4.188725471496582 14.5657434463501 6.251495361328125 11.50631332397461 8.878905296325684 8.878903388977051 C 11.50631523132324 6.251493453979492 14.56574535369873 4.188723564147949 17.97223472595215 2.74790358543396 C 21.49876594543457 1.256303668022156 25.24515533447266 0.5000036954879761 29.10734558105469 0.5000036954879761 C 32.96953582763672 0.5000036954879761 36.71592712402344 1.256303668022156 40.24246597290039 2.74790358543396 C 43.64894485473633 4.188723564147949 46.7083854675293 6.251493453979492 49.33579635620117 8.878903388977051 C 51.96320724487305 11.50631332397461 54.02597427368164 14.5657434463501 55.466796875 17.97223281860352 C 56.95839691162109 21.49876403808594 57.71469497680664 25.24515342712402 57.71469497680664 29.10734367370605 C 57.71469497680664 32.96953201293945 56.95839691162109 36.71592330932617 55.466796875 40.24245452880859 C 54.02597427368164 43.64894485473633 51.96320724487305 46.7083740234375 49.33579635620117 49.33578491210938 C 46.7083854675293 51.96319198608398 43.64894485473633 54.02596282958984 40.24246597290039 55.4667854309082 C 36.71592712402344 56.9583854675293 32.96953582763672 57.71468353271484 29.10734558105469 57.71468353271484 Z" stroke="none"/>
        <path d="M 29.10734558105469 1.000003814697266 C 25.31243515014648 1.000003814697266 21.63157653808594 1.743015289306641 18.16700744628906 3.208404541015625 C 14.82012557983398 4.6240234375 11.81410598754883 6.650802612304688 9.232444763183594 9.232452392578125 C 6.650794982910156 11.81410217285156 4.624015808105469 14.82012557983398 3.208396911621094 18.1670036315918 C 1.743003845214844 21.63157272338867 0.9999961853027344 25.31243515014648 0.9999961853027344 29.10734367370605 C 0.9999961853027344 32.90225219726563 1.743003845214844 36.58311462402344 3.208396911621094 40.04768371582031 C 4.624015808105469 43.39456176757813 6.650794982910156 46.40058135986328 9.232444763183594 48.98223495483398 C 11.81410598754883 51.56388473510742 14.82012557983398 53.59066390991211 18.16700744628906 55.00628280639648 C 21.63157653808594 56.47167205810547 25.31243515014648 57.21468353271484 29.10734558105469 57.21468353271484 C 32.90225601196289 57.21468353271484 36.58311462402344 56.47167205810547 40.04768371582031 55.00628280639648 C 43.39456558227539 53.59066390991211 46.40058517456055 51.56388473510742 48.98223495483398 48.98223495483398 C 51.56388473510742 46.40058135986328 53.59066772460938 43.39456176757813 55.00628662109375 40.04768371582031 C 56.47167587280273 36.58311462402344 57.21468734741211 32.90225219726563 57.21468734741211 29.10734367370605 C 57.21468734741211 25.31243515014648 56.47167587280273 21.63157272338867 55.00628662109375 18.1670036315918 C 53.59066772460938 14.82012557983398 51.56388473510742 11.81410217285156 48.98223495483398 9.232452392578125 C 46.40058517456055 6.650802612304688 43.39456558227539 4.6240234375 40.04768371582031 3.208404541015625 C 36.58311462402344 1.743015289306641 32.90225601196289 1.000003814697266 29.10734558105469 1.000003814697266 M 29.10734558105469 3.814697265625e-06 C 45.18288421630859 3.814697265625e-06 58.21468734741211 13.03180313110352 58.21468734741211 29.10734367370605 C 58.21468734741211 45.18288421630859 45.18288421630859 58.21468353271484 29.10734558105469 58.21468353271484 C 13.03180694580078 58.21468353271484 -3.814697265625e-06 45.18288421630859 -3.814697265625e-06 29.10734367370605 C -3.814697265625e-06 13.03180313110352 13.03180694580078 3.814697265625e-06 29.10734558105469 3.814697265625e-06 Z" stroke="none" fill="#ffe505"/>
      </g>
      <g id="矩形_13" data-name="矩形 13" transform="translate(0 145.537)" stroke="#000" stroke-width="1">
        <rect width="29.107" height="29.107" rx="12" stroke="none"/>
        <rect x="0.5" y="0.5" width="28.107" height="28.107" rx="11.5" fill="none"/>
      </g>
      <g id="路径_11" data-name="路径 11" transform="translate(58.851 167.793) rotate(-21)">
        <path d="M 18.19209289550781 10.41525745391846 L 10.91525363922119 10.41525745391846 C 5.339814186096191 10.41525745391846 0.7735484838485718 6.011807441711426 0.511853814125061 0.4999972879886627 L 28.59549331665039 0.4999972879886627 C 28.33379936218262 6.011807441711426 23.76753234863281 10.41525745391846 18.19209289550781 10.41525745391846 Z" stroke="none"/>
        <path d="M 1.050043106079102 0.9999971389770508 C 1.5528564453125 5.999635219573975 5.785331726074219 9.915257453918457 10.91525459289551 9.915257453918457 L 18.19209289550781 9.915257453918457 C 23.3220157623291 9.915257453918457 27.55449104309082 5.999635219573975 28.05730438232422 0.9999971389770508 L 1.050043106079102 0.9999971389770508 M 3.814697265625e-06 -2.86102294921875e-06 L 29.10734367370605 -2.86102294921875e-06 C 29.10734367370605 6.028327465057373 24.22042465209961 10.91525745391846 18.19209289550781 10.91525745391846 L 10.91525459289551 10.91525745391846 C 4.886922836303711 10.91525745391846 3.814697265625e-06 6.028327465057373 3.814697265625e-06 -2.86102294921875e-06 Z" stroke="none"/>
      </g>
    </g>
  </g>
</svg>
